<mxfile host="Electron" agent="Mozilla/5.0 (Windows NT 10.0; Win64; x64) AppleWebKit/537.36 (KHTML, like Gecko) draw.io/26.2.15 Chrome/134.0.6998.205 Electron/35.2.1 Safari/537.36" version="26.2.15">
  <diagram name="Page-1" id="JGU-5cKZ7grBn1dA6ETB">
    <mxGraphModel dx="1042" dy="660" grid="1" gridSize="5" guides="1" tooltips="1" connect="1" arrows="1" fold="1" page="1" pageScale="1" pageWidth="1100" pageHeight="850" math="0" shadow="0">
      <root>
        <mxCell id="0" />
        <mxCell id="1" parent="0" />
        <mxCell id="UnsoL70KzH1k03Q2WHb0-153" value="" style="group" parent="1" vertex="1" connectable="0">
          <mxGeometry x="32.5" y="45" width="987.5" height="557" as="geometry" />
        </mxCell>
        <mxCell id="UnsoL70KzH1k03Q2WHb0-114" value="" style="shape=singleArrow;whiteSpace=wrap;html=1;fillColor=#dae8fc;strokeColor=#6c8ebf;container=0;" parent="UnsoL70KzH1k03Q2WHb0-153" vertex="1">
          <mxGeometry x="158.75" y="205.5" width="50" height="30" as="geometry" />
        </mxCell>
        <mxCell id="UnsoL70KzH1k03Q2WHb0-133" value="&lt;span style=&quot;color: rgba(0, 0, 0, 0); font-family: monospace; font-size: 0px; text-align: start; text-wrap-mode: nowrap;&quot;&gt;%3CmxGraphModel%3E%3Croot%3E%3CmxCell%20id%3D%220%22%2F%3E%3CmxCell%20id%3D%221%22%20parent%3D%220%22%2F%3E%3CmxCell%20id%3D%222%22%20value%3D%22%22%20style%3D%22group%22%20vertex%3D%221%22%20connectable%3D%220%22%20parent%3D%221%22%3E%3CmxGeometry%20x%3D%22433.75%22%20y%3D%2282%22%20width%3D%22172.25%22%20height%3D%22495.5%22%20as%3D%22geometry%22%2F%3E%3C%2FmxCell%3E%3CmxCell%20id%3D%223%22%20value%3D%22%22%20style%3D%22group%22%20vertex%3D%221%22%20connectable%3D%220%22%20parent%3D%222%22%3E%3CmxGeometry%20width%3D%22172.25%22%20height%3D%22495.5%22%20as%3D%22geometry%22%2F%3E%3C%2FmxCell%3E%3CmxCell%20id%3D%224%22%20value%3D%22%22%20style%3D%22rounded%3D0%3BwhiteSpace%3Dwrap%3Bhtml%3D1%3BfillColor%3Dnone%3Bdashed%3D1%3BstrokeColor%3D%23808080%3Bcontainer%3D0%3B%22%20vertex%3D%221%22%20parent%3D%223%22%3E%3CmxGeometry%20x%3D%2212.25%22%20y%3D%2238%22%20width%3D%22160%22%20height%3D%22457.5%22%20as%3D%22geometry%22%2F%3E%3C%2FmxCell%3E%3CmxCell%20id%3D%225%22%20value%3D%22Silver%20Layer%22%20style%3D%22rounded%3D0%3BwhiteSpace%3Dwrap%3Bhtml%3D1%3BstrokeColor%3D%23666666%3BfillColor%3D%23f5f5f5%3BfontColor%3D%23333333%3B%22%20vertex%3D%221%22%20parent%3D%223%22%3E%3CmxGeometry%20x%3D%2212.25%22%20width%3D%22160%22%20height%3D%2230%22%20as%3D%22geometry%22%2F%3E%3C%2FmxCell%3E%3CmxCell%20id%3D%226%22%20value%3D%22%22%20style%3D%22endArrow%3Dnone%3Bhtml%3D1%3Brounded%3D0%3B%22%20edge%3D%221%22%20parent%3D%223%22%3E%3CmxGeometry%20relative%3D%221%22%20as%3D%22geometry%22%3E%3CmxPoint%20x%3D%2221.25%22%20y%3D%22178%22%20as%3D%22sourcePoint%22%2F%3E%3CmxPoint%20x%3D%22166.25%22%20y%3D%22178%22%20as%3D%22targetPoint%22%2F%3E%3C%2FmxGeometry%3E%3C%2FmxCell%3E%3CmxCell%20id%3D%227%22%20value%3D%22%26lt%3Bb%26gt%3BObject%20Type%26lt%3B%2Fb%26gt%3B%3A%20Table%22%20style%3D%22text%3Bhtml%3D1%3Balign%3Dcenter%3BverticalAlign%3Dmiddle%3BwhiteSpace%3Dwrap%3Brounded%3D0%3B%22%20vertex%3D%221%22%20parent%3D%223%22%3E%3CmxGeometry%20x%3D%221.25%22%20y%3D%22186.5%22%20width%3D%22155%22%20height%3D%2230%22%20as%3D%22geometry%22%2F%3E%3C%2FmxCell%3E%3CmxCell%20id%3D%228%22%20value%3D%22%26lt%3Bul%26gt%3B%26lt%3Bli%26gt%3BBatch%20Processing%26lt%3B%2Fli%26gt%3B%26lt%3Bli%26gt%3BFull%20Load%26lt%3B%2Fli%26gt%3B%26lt%3Bli%26gt%3BTruncate%20%26amp%3Bamp%3B%20Insert%26lt%3B%2Fli%26gt%3B%26lt%3B%2Ful%26gt%3B%22%20style%3D%22text%3Bhtml%3D1%3Balign%3Dleft%3BverticalAlign%3Dmiddle%3BwhiteSpace%3Dwrap%3Brounded%3D0%3B%22%20vertex%3D%221%22%20parent%3D%223%22%3E%3CmxGeometry%20x%3D%2212.25%22%20y%3D%22246.5%22%20width%3D%22140%22%20height%3D%2265.25%22%20as%3D%22geometry%22%2F%3E%3C%2FmxCell%3E%3CmxCell%20id%3D%229%22%20value%3D%22Transactions%22%20style%3D%22text%3Bhtml%3D1%3Balign%3Dcenter%3BverticalAlign%3Dmiddle%3BwhiteSpace%3Dwrap%3Brounded%3D0%3BfontStyle%3D1%22%20vertex%3D%221%22%20parent%3D%223%22%3E%3CmxGeometry%20x%3D%2222.25%22%20y%3D%22308%22%20width%3D%2285%22%20height%3D%2230%22%20as%3D%22geometry%22%2F%3E%3C%2FmxCell%3E%3CmxCell%20id%3D%2210%22%20value%3D%22%26lt%3Bb%26gt%3BData%20Model%3A%20%26lt%3B%2Fb%26gt%3BNone%26amp%3Bnbsp%3B%26lt%3Bdiv%26gt%3B(As-it-is)%26lt%3B%2Fdiv%26gt%3B%22%20style%3D%22text%3Bhtml%3D1%3Balign%3Dcenter%3BverticalAlign%3Dmiddle%3BwhiteSpace%3Dwrap%3Brounded%3D0%3B%22%20vertex%3D%221%22%20parent%3D%223%22%3E%3CmxGeometry%20y%3D%22408%22%20width%3D%22157.5%22%20height%3D%2250%22%20as%3D%22geometry%22%2F%3E%3C%2FmxCell%3E%3CmxCell%20id%3D%2211%22%20value%3D%22%26lt%3Bul%26gt%3B%26lt%3Bli%26gt%3BData%20Cleaning%26lt%3B%2Fli%26gt%3B%26lt%3Bli%26gt%3BData%20Standardization%26lt%3B%2Fli%26gt%3B%26lt%3Bli%26gt%3BData%20Normalization%26lt%3B%2Fli%26gt%3B%26lt%3Bli%26gt%3BDerived%20Columns%26lt%3B%2Fli%26gt%3B%26lt%3Bli%26gt%3BData%20Enrichment%26lt%3B%2Fli%26gt%3B%26lt%3B%2Ful%26gt%3B%22%20style%3D%22text%3Bhtml%3D1%3Balign%3Dleft%3BverticalAlign%3Dmiddle%3BwhiteSpace%3Dwrap%3Brounded%3D0%3B%22%20vertex%3D%221%22%20parent%3D%223%22%3E%3CmxGeometry%20x%3D%224.75%22%20y%3D%22338%22%20width%3D%22162.5%22%20height%3D%2265.25%22%20as%3D%22geometry%22%2F%3E%3C%2FmxCell%3E%3CmxCell%20id%3D%2212%22%20value%3D%22%22%20style%3D%22group%22%20vertex%3D%221%22%20connectable%3D%220%22%20parent%3D%222%22%3E%3CmxGeometry%20x%3D%2226.25%22%20y%3D%2263%22%20width%3D%2296%22%20height%3D%22195.5%22%20as%3D%22geometry%22%2F%3E%3C%2FmxCell%3E%3CmxCell%20id%3D%2213%22%20value%3D%22%22%20style%3D%22html%3D1%3BverticalLabelPosition%3Dbottom%3Balign%3Dcenter%3BlabelBackgroundColor%3D%23ffffff%3BverticalAlign%3Dtop%3BstrokeWidth%3D2%3BstrokeColor%3D%23666666%3Bshadow%3D0%3Bdashed%3D0%3Bshape%3Dmxgraph.ios7.icons.data%3BfillColor%3D%23f5f5f5%3BfontColor%3D%23333333%3B%22%20vertex%3D%221%22%20parent%3D%2212%22%3E%3CmxGeometry%20x%3D%2240%22%20width%3D%2252%22%20height%3D%2255%22%20as%3D%22geometry%22%2F%3E%3C%2FmxCell%3E%3CmxCell%20id%3D%2214%22%20value%3D%22Cleaned%2CStandardized%20Data%22%20style%3D%22text%3Bhtml%3D1%3Balign%3Dcenter%3BverticalAlign%3Dmiddle%3BwhiteSpace%3Dwrap%3Brounded%3D0%3B%22%20vertex%3D%221%22%20parent%3D%2212%22%3E%3CmxGeometry%20x%3D%2236%22%20y%3D%2265%22%20width%3D%2260%22%20height%3D%2230%22%20as%3D%22geometry%22%2F%3E%3C%2FmxCell%3E%3CmxCell%20id%3D%2215%22%20value%3D%22%26lt%3Bb%26gt%3BLoad%26lt%3B%2Fb%26gt%3B%22%20style%3D%22text%3Bhtml%3D1%3Balign%3Dcenter%3BverticalAlign%3Dmiddle%3BwhiteSpace%3Dwrap%3Brounded%3D0%3B%22%20vertex%3D%221%22%20parent%3D%2212%22%3E%3CmxGeometry%20y%3D%22165.5%22%20width%3D%2231%22%20height%3D%2230%22%20as%3D%22geometry%22%2F%3E%3C%2FmxCell%3E%3C%2Froot%3E%3C%2FmxGraphModel%3E&lt;/span&gt;&lt;span style=&quot;color: rgba(0, 0, 0, 0); font-family: monospace; font-size: 0px; text-align: start; text-wrap-mode: nowrap;&quot;&gt;%3CmxGraphModel%3E%3Croot%3E%3CmxCell%20id%3D%220%22%2F%3E%3CmxCell%20id%3D%221%22%20parent%3D%220%22%2F%3E%3CmxCell%20id%3D%222%22%20value%3D%22%22%20style%3D%22group%22%20vertex%3D%221%22%20connectable%3D%220%22%20parent%3D%221%22%3E%3CmxGeometry%20x%3D%22433.75%22%20y%3D%2282%22%20width%3D%22172.25%22%20height%3D%22495.5%22%20as%3D%22geometry%22%2F%3E%3C%2FmxCell%3E%3CmxCell%20id%3D%223%22%20value%3D%22%22%20style%3D%22group%22%20vertex%3D%221%22%20connectable%3D%220%22%20parent%3D%222%22%3E%3CmxGeometry%20width%3D%22172.25%22%20height%3D%22495.5%22%20as%3D%22geometry%22%2F%3E%3C%2FmxCell%3E%3CmxCell%20id%3D%224%22%20value%3D%22%22%20style%3D%22rounded%3D0%3BwhiteSpace%3Dwrap%3Bhtml%3D1%3BfillColor%3Dnone%3Bdashed%3D1%3BstrokeColor%3D%23808080%3Bcontainer%3D0%3B%22%20vertex%3D%221%22%20parent%3D%223%22%3E%3CmxGeometry%20x%3D%2212.25%22%20y%3D%2238%22%20width%3D%22160%22%20height%3D%22457.5%22%20as%3D%22geometry%22%2F%3E%3C%2FmxCell%3E%3CmxCell%20id%3D%225%22%20value%3D%22Silver%20Layer%22%20style%3D%22rounded%3D0%3BwhiteSpace%3Dwrap%3Bhtml%3D1%3BstrokeColor%3D%23666666%3BfillColor%3D%23f5f5f5%3BfontColor%3D%23333333%3B%22%20vertex%3D%221%22%20parent%3D%223%22%3E%3CmxGeometry%20x%3D%2212.25%22%20width%3D%22160%22%20height%3D%2230%22%20as%3D%22geometry%22%2F%3E%3C%2FmxCell%3E%3CmxCell%20id%3D%226%22%20value%3D%22%22%20style%3D%22endArrow%3Dnone%3Bhtml%3D1%3Brounded%3D0%3B%22%20edge%3D%221%22%20parent%3D%223%22%3E%3CmxGeometry%20relative%3D%221%22%20as%3D%22geometry%22%3E%3CmxPoint%20x%3D%2221.25%22%20y%3D%22178%22%20as%3D%22sourcePoint%22%2F%3E%3CmxPoint%20x%3D%22166.25%22%20y%3D%22178%22%20as%3D%22targetPoint%22%2F%3E%3C%2FmxGeometry%3E%3C%2FmxCell%3E%3CmxCell%20id%3D%227%22%20value%3D%22%26lt%3Bb%26gt%3BObject%20Type%26lt%3B%2Fb%26gt%3B%3A%20Table%22%20style%3D%22text%3Bhtml%3D1%3Balign%3Dcenter%3BverticalAlign%3Dmiddle%3BwhiteSpace%3Dwrap%3Brounded%3D0%3B%22%20vertex%3D%221%22%20parent%3D%223%22%3E%3CmxGeometry%20x%3D%221.25%22%20y%3D%22186.5%22%20width%3D%22155%22%20height%3D%2230%22%20as%3D%22geometry%22%2F%3E%3C%2FmxCell%3E%3CmxCell%20id%3D%228%22%20value%3D%22%26lt%3Bul%26gt%3B%26lt%3Bli%26gt%3BBatch%20Processing%26lt%3B%2Fli%26gt%3B%26lt%3Bli%26gt%3BFull%20Load%26lt%3B%2Fli%26gt%3B%26lt%3Bli%26gt%3BTruncate%20%26amp%3Bamp%3B%20Insert%26lt%3B%2Fli%26gt%3B%26lt%3B%2Ful%26gt%3B%22%20style%3D%22text%3Bhtml%3D1%3Balign%3Dleft%3BverticalAlign%3Dmiddle%3BwhiteSpace%3Dwrap%3Brounded%3D0%3B%22%20vertex%3D%221%22%20parent%3D%223%22%3E%3CmxGeometry%20x%3D%2212.25%22%20y%3D%22246.5%22%20width%3D%22140%22%20height%3D%2265.25%22%20as%3D%22geometry%22%2F%3E%3C%2FmxCell%3E%3CmxCell%20id%3D%229%22%20value%3D%22Transactions%22%20style%3D%22text%3Bhtml%3D1%3Balign%3Dcenter%3BverticalAlign%3Dmiddle%3BwhiteSpace%3Dwrap%3Brounded%3D0%3BfontStyle%3D1%22%20vertex%3D%221%22%20parent%3D%223%22%3E%3CmxGeometry%20x%3D%2222.25%22%20y%3D%22308%22%20width%3D%2285%22%20height%3D%2230%22%20as%3D%22geometry%22%2F%3E%3C%2FmxCell%3E%3CmxCell%20id%3D%2210%22%20value%3D%22%26lt%3Bb%26gt%3BData%20Model%3A%20%26lt%3B%2Fb%26gt%3BNone%26amp%3Bnbsp%3B%26lt%3Bdiv%26gt%3B(As-it-is)%26lt%3B%2Fdiv%26gt%3B%22%20style%3D%22text%3Bhtml%3D1%3Balign%3Dcenter%3BverticalAlign%3Dmiddle%3BwhiteSpace%3Dwrap%3Brounded%3D0%3B%22%20vertex%3D%221%22%20parent%3D%223%22%3E%3CmxGeometry%20y%3D%22408%22%20width%3D%22157.5%22%20height%3D%2250%22%20as%3D%22geometry%22%2F%3E%3C%2FmxCell%3E%3CmxCell%20id%3D%2211%22%20value%3D%22%26lt%3Bul%26gt%3B%26lt%3Bli%26gt%3BData%20Cleaning%26lt%3B%2Fli%26gt%3B%26lt%3Bli%26gt%3BData%20Standardization%26lt%3B%2Fli%26gt%3B%26lt%3Bli%26gt%3BData%20Normalization%26lt%3B%2Fli%26gt%3B%26lt%3Bli%26gt%3BDerived%20Columns%26lt%3B%2Fli%26gt%3B%26lt%3Bli%26gt%3BData%20Enrichment%26lt%3B%2Fli%26gt%3B%26lt%3B%2Ful%26gt%3B%22%20style%3D%22text%3Bhtml%3D1%3Balign%3Dleft%3BverticalAlign%3Dmiddle%3BwhiteSpace%3Dwrap%3Brounded%3D0%3B%22%20vertex%3D%221%22%20parent%3D%223%22%3E%3CmxGeometry%20x%3D%224.75%22%20y%3D%22338%22%20width%3D%22162.5%22%20height%3D%2265.25%22%20as%3D%22geometry%22%2F%3E%3C%2FmxCell%3E%3CmxCell%20id%3D%2212%22%20value%3D%22%22%20style%3D%22group%22%20vertex%3D%221%22%20connectable%3D%220%22%20parent%3D%222%22%3E%3CmxGeometry%20x%3D%2226.25%22%20y%3D%2263%22%20width%3D%2296%22%20height%3D%22195.5%22%20as%3D%22geometry%22%2F%3E%3C%2FmxCell%3E%3CmxCell%20id%3D%2213%22%20value%3D%22%22%20style%3D%22html%3D1%3BverticalLabelPosition%3Dbottom%3Balign%3Dcenter%3BlabelBackgroundColor%3D%23ffffff%3BverticalAlign%3Dtop%3BstrokeWidth%3D2%3BstrokeColor%3D%23666666%3Bshadow%3D0%3Bdashed%3D0%3Bshape%3Dmxgraph.ios7.icons.data%3BfillColor%3D%23f5f5f5%3BfontColor%3D%23333333%3B%22%20vertex%3D%221%22%20parent%3D%2212%22%3E%3CmxGeometry%20x%3D%2240%22%20width%3D%2252%22%20height%3D%2255%22%20as%3D%22geometry%22%2F%3E%3C%2FmxCell%3E%3CmxCell%20id%3D%2214%22%20value%3D%22Cleaned%2CStandardized%20Data%22%20style%3D%22text%3Bhtml%3D1%3Balign%3Dcenter%3BverticalAlign%3Dmiddle%3BwhiteSpace%3Dwrap%3Brounded%3D0%3B%22%20vertex%3D%221%22%20parent%3D%2212%22%3E%3CmxGeometry%20x%3D%2236%22%20y%3D%2265%22%20width%3D%2260%22%20height%3D%2230%22%20as%3D%22geometry%22%2F%3E%3C%2FmxCell%3E%3CmxCell%20id%3D%2215%22%20value%3D%22%26lt%3Bb%26gt%3BLoad%26lt%3B%2Fb%26gt%3B%22%20style%3D%22text%3Bhtml%3D1%3Balign%3Dcenter%3BverticalAlign%3Dmiddle%3BwhiteSpace%3Dwrap%3Brounded%3D0%3B%22%20vertex%3D%221%22%20parent%3D%2212%22%3E%3CmxGeometry%20y%3D%22165.5%22%20width%3D%2231%22%20height%3D%2230%22%20as%3D%22geometry%22%2F%3E%3C%2FmxCell%3E%3C%2Froot%3E%3C%2FmxGraphModel%3E&lt;/span&gt;" style="shape=singleArrow;whiteSpace=wrap;html=1;fillColor=#dae8fc;strokeColor=#6c8ebf;container=0;" parent="UnsoL70KzH1k03Q2WHb0-153" vertex="1">
          <mxGeometry x="572.5" y="203" width="35" height="27" as="geometry" />
        </mxCell>
        <mxCell id="UnsoL70KzH1k03Q2WHb0-50" value="Silver Layer" style="rounded=0;whiteSpace=wrap;html=1;strokeColor=#666666;fillColor=#f5f5f5;fontColor=#333333;container=0;" parent="UnsoL70KzH1k03Q2WHb0-153" vertex="1">
          <mxGeometry x="406.5" y="55" width="160" height="30" as="geometry" />
        </mxCell>
        <mxCell id="UnsoL70KzH1k03Q2WHb0-69" value="" style="endArrow=none;html=1;rounded=0;" parent="UnsoL70KzH1k03Q2WHb0-153" edge="1">
          <mxGeometry relative="1" as="geometry">
            <mxPoint x="423.5" y="216.20999999999998" as="sourcePoint" />
            <mxPoint x="568.5" y="216.20999999999998" as="targetPoint" />
          </mxGeometry>
        </mxCell>
        <mxCell id="UnsoL70KzH1k03Q2WHb0-77" value="&lt;b&gt;Object Type&lt;/b&gt;: Table" style="text;html=1;align=center;verticalAlign=middle;whiteSpace=wrap;rounded=0;container=0;" parent="UnsoL70KzH1k03Q2WHb0-153" vertex="1">
          <mxGeometry x="409" y="234.2" width="155" height="30" as="geometry" />
        </mxCell>
        <mxCell id="UnsoL70KzH1k03Q2WHb0-79" value="&lt;ul&gt;&lt;li&gt;Batch Processing&lt;/li&gt;&lt;li&gt;Full Load&lt;/li&gt;&lt;li&gt;Truncate &amp;amp; Insert&lt;/li&gt;&lt;/ul&gt;" style="text;html=1;align=left;verticalAlign=middle;whiteSpace=wrap;rounded=0;container=0;" parent="UnsoL70KzH1k03Q2WHb0-153" vertex="1">
          <mxGeometry x="414.75" y="290" width="140" height="65.25" as="geometry" />
        </mxCell>
        <mxCell id="UnsoL70KzH1k03Q2WHb0-80" value="Transactions" style="text;html=1;align=center;verticalAlign=middle;whiteSpace=wrap;rounded=0;fontStyle=1;container=0;" parent="UnsoL70KzH1k03Q2WHb0-153" vertex="1">
          <mxGeometry x="432.5" y="350" width="85" height="30" as="geometry" />
        </mxCell>
        <mxCell id="UnsoL70KzH1k03Q2WHb0-81" value="&lt;b&gt;Data Model: &lt;/b&gt;None&amp;nbsp;&lt;div&gt;(As-it-is)&lt;/div&gt;" style="text;html=1;align=center;verticalAlign=middle;whiteSpace=wrap;rounded=0;container=0;" parent="UnsoL70KzH1k03Q2WHb0-153" vertex="1">
          <mxGeometry x="411" y="460" width="157.5" height="50" as="geometry" />
        </mxCell>
        <mxCell id="UnsoL70KzH1k03Q2WHb0-82" value="&lt;ul&gt;&lt;li&gt;Data Cleaning&lt;/li&gt;&lt;li&gt;Data Standardization&lt;/li&gt;&lt;li&gt;Data Normalization&lt;/li&gt;&lt;li&gt;Derived Columns&lt;/li&gt;&lt;li&gt;Data Enrichment&lt;/li&gt;&lt;/ul&gt;" style="text;html=1;align=left;verticalAlign=middle;whiteSpace=wrap;rounded=0;container=0;" parent="UnsoL70KzH1k03Q2WHb0-153" vertex="1">
          <mxGeometry x="415.75" y="380" width="162.5" height="65.25" as="geometry" />
        </mxCell>
        <mxCell id="UnsoL70KzH1k03Q2WHb0-6" value="Data Warehouse" style="rounded=0;whiteSpace=wrap;html=1;strokeColor=none;fontSize=24;container=0;" parent="UnsoL70KzH1k03Q2WHb0-153" vertex="1">
          <mxGeometry x="368.75" width="235" height="30" as="geometry" />
        </mxCell>
        <mxCell id="UnsoL70KzH1k03Q2WHb0-56" value="" style="html=1;verticalLabelPosition=bottom;align=center;labelBackgroundColor=#ffffff;verticalAlign=top;strokeWidth=2;strokeColor=#666666;shadow=0;dashed=0;shape=mxgraph.ios7.icons.data;fillColor=#f5f5f5;fontColor=#333333;container=0;" parent="UnsoL70KzH1k03Q2WHb0-153" vertex="1">
          <mxGeometry x="469.75" y="119" width="52" height="55" as="geometry" />
        </mxCell>
        <mxCell id="UnsoL70KzH1k03Q2WHb0-60" value="Cleaned,Standardized Data" style="text;html=1;align=center;verticalAlign=middle;whiteSpace=wrap;rounded=0;container=0;" parent="UnsoL70KzH1k03Q2WHb0-153" vertex="1">
          <mxGeometry x="469.75" y="180" width="60" height="30" as="geometry" />
        </mxCell>
        <mxCell id="UnsoL70KzH1k03Q2WHb0-78" value="&lt;b&gt;Load&lt;/b&gt;" style="text;html=1;align=center;verticalAlign=middle;whiteSpace=wrap;rounded=0;container=0;" parent="UnsoL70KzH1k03Q2WHb0-153" vertex="1">
          <mxGeometry x="432.5" y="273.5" width="31" height="30" as="geometry" />
        </mxCell>
        <mxCell id="UnsoL70KzH1k03Q2WHb0-54" value="" style="html=1;verticalLabelPosition=bottom;align=center;labelBackgroundColor=#ffffff;verticalAlign=top;strokeWidth=2;strokeColor=#d79b00;shadow=0;dashed=0;shape=mxgraph.ios7.icons.data;fillColor=#ffe6cc;container=0;" parent="UnsoL70KzH1k03Q2WHb0-153" vertex="1">
          <mxGeometry x="262.75" y="121" width="52" height="55" as="geometry" />
        </mxCell>
        <mxCell id="UnsoL70KzH1k03Q2WHb0-41" value="" style="rounded=0;whiteSpace=wrap;html=1;fillColor=none;dashed=1;strokeColor=#808080;container=0;" parent="UnsoL70KzH1k03Q2WHb0-153" vertex="1">
          <mxGeometry x="410" y="96.13" width="158.5" height="438.87" as="geometry" />
        </mxCell>
        <mxCell id="UnsoL70KzH1k03Q2WHb0-48" value="&lt;font&gt;Bronze Layer&lt;/font&gt;" style="rounded=0;whiteSpace=wrap;html=1;strokeColor=#d79b00;fillColor=#ffe6cc;container=0;" parent="UnsoL70KzH1k03Q2WHb0-153" vertex="1">
          <mxGeometry x="208.75" y="55" width="160" height="30" as="geometry" />
        </mxCell>
        <mxCell id="UnsoL70KzH1k03Q2WHb0-58" value="Raw Data" style="text;html=1;align=center;verticalAlign=middle;whiteSpace=wrap;rounded=0;container=0;" parent="UnsoL70KzH1k03Q2WHb0-153" vertex="1">
          <mxGeometry x="257.5" y="174" width="60" height="30" as="geometry" />
        </mxCell>
        <mxCell id="UnsoL70KzH1k03Q2WHb0-66" value="" style="endArrow=none;html=1;rounded=0;" parent="UnsoL70KzH1k03Q2WHb0-153" edge="1">
          <mxGeometry relative="1" as="geometry">
            <mxPoint x="214.5" y="216" as="sourcePoint" />
            <mxPoint x="359.5" y="216" as="targetPoint" />
          </mxGeometry>
        </mxCell>
        <mxCell id="UnsoL70KzH1k03Q2WHb0-71" value="&lt;b&gt;Object Type&lt;/b&gt;: Table" style="text;html=1;align=center;verticalAlign=middle;whiteSpace=wrap;rounded=0;container=0;" parent="UnsoL70KzH1k03Q2WHb0-153" vertex="1">
          <mxGeometry x="192" y="234.2" width="155" height="30" as="geometry" />
        </mxCell>
        <mxCell id="UnsoL70KzH1k03Q2WHb0-73" value="&lt;b&gt;Load&lt;/b&gt;" style="text;html=1;align=center;verticalAlign=middle;whiteSpace=wrap;rounded=0;container=0;" parent="UnsoL70KzH1k03Q2WHb0-153" vertex="1">
          <mxGeometry x="216.5" y="274.5" width="31" height="30" as="geometry" />
        </mxCell>
        <mxCell id="UnsoL70KzH1k03Q2WHb0-74" value="&lt;ul&gt;&lt;li&gt;Batch Processing&lt;/li&gt;&lt;li&gt;Full Load&lt;/li&gt;&lt;li&gt;Truncate &amp;amp; Insert&lt;/li&gt;&lt;/ul&gt;" style="text;html=1;align=left;verticalAlign=middle;whiteSpace=wrap;rounded=0;container=0;" parent="UnsoL70KzH1k03Q2WHb0-153" vertex="1">
          <mxGeometry x="199.5" y="298.75" width="140" height="65.25" as="geometry" />
        </mxCell>
        <mxCell id="UnsoL70KzH1k03Q2WHb0-75" value="&lt;span style=&quot;font-weight: normal;&quot;&gt;No&lt;/span&gt; Transactions" style="text;html=1;align=center;verticalAlign=middle;whiteSpace=wrap;rounded=0;fontStyle=1;container=0;" parent="UnsoL70KzH1k03Q2WHb0-153" vertex="1">
          <mxGeometry x="212.5" y="383" width="105" height="30" as="geometry" />
        </mxCell>
        <mxCell id="UnsoL70KzH1k03Q2WHb0-76" value="&lt;b&gt;Data Model: &lt;/b&gt;None (As-it-is)" style="text;html=1;align=center;verticalAlign=middle;whiteSpace=wrap;rounded=0;container=0;" parent="UnsoL70KzH1k03Q2WHb0-153" vertex="1">
          <mxGeometry x="210" y="420" width="157.5" height="50" as="geometry" />
        </mxCell>
        <mxCell id="UnsoL70KzH1k03Q2WHb0-118" value="&lt;span style=&quot;color: rgba(0, 0, 0, 0); font-family: monospace; font-size: 0px; text-align: start; text-wrap-mode: nowrap;&quot;&gt;%3CmxGraphModel%3E%3Croot%3E%3CmxCell%20id%3D%220%22%2F%3E%3CmxCell%20id%3D%221%22%20parent%3D%220%22%2F%3E%3CmxCell%20id%3D%222%22%20value%3D%22%22%20style%3D%22group%22%20vertex%3D%221%22%20connectable%3D%220%22%20parent%3D%221%22%3E%3CmxGeometry%20x%3D%22433.75%22%20y%3D%2282%22%20width%3D%22172.25%22%20height%3D%22495.5%22%20as%3D%22geometry%22%2F%3E%3C%2FmxCell%3E%3CmxCell%20id%3D%223%22%20value%3D%22%22%20style%3D%22group%22%20vertex%3D%221%22%20connectable%3D%220%22%20parent%3D%222%22%3E%3CmxGeometry%20width%3D%22172.25%22%20height%3D%22495.5%22%20as%3D%22geometry%22%2F%3E%3C%2FmxCell%3E%3CmxCell%20id%3D%224%22%20value%3D%22%22%20style%3D%22rounded%3D0%3BwhiteSpace%3Dwrap%3Bhtml%3D1%3BfillColor%3Dnone%3Bdashed%3D1%3BstrokeColor%3D%23808080%3Bcontainer%3D0%3B%22%20vertex%3D%221%22%20parent%3D%223%22%3E%3CmxGeometry%20x%3D%2212.25%22%20y%3D%2238%22%20width%3D%22160%22%20height%3D%22457.5%22%20as%3D%22geometry%22%2F%3E%3C%2FmxCell%3E%3CmxCell%20id%3D%225%22%20value%3D%22Silver%20Layer%22%20style%3D%22rounded%3D0%3BwhiteSpace%3Dwrap%3Bhtml%3D1%3BstrokeColor%3D%23666666%3BfillColor%3D%23f5f5f5%3BfontColor%3D%23333333%3B%22%20vertex%3D%221%22%20parent%3D%223%22%3E%3CmxGeometry%20x%3D%2212.25%22%20width%3D%22160%22%20height%3D%2230%22%20as%3D%22geometry%22%2F%3E%3C%2FmxCell%3E%3CmxCell%20id%3D%226%22%20value%3D%22%22%20style%3D%22endArrow%3Dnone%3Bhtml%3D1%3Brounded%3D0%3B%22%20edge%3D%221%22%20parent%3D%223%22%3E%3CmxGeometry%20relative%3D%221%22%20as%3D%22geometry%22%3E%3CmxPoint%20x%3D%2221.25%22%20y%3D%22178%22%20as%3D%22sourcePoint%22%2F%3E%3CmxPoint%20x%3D%22166.25%22%20y%3D%22178%22%20as%3D%22targetPoint%22%2F%3E%3C%2FmxGeometry%3E%3C%2FmxCell%3E%3CmxCell%20id%3D%227%22%20value%3D%22%26lt%3Bb%26gt%3BObject%20Type%26lt%3B%2Fb%26gt%3B%3A%20Table%22%20style%3D%22text%3Bhtml%3D1%3Balign%3Dcenter%3BverticalAlign%3Dmiddle%3BwhiteSpace%3Dwrap%3Brounded%3D0%3B%22%20vertex%3D%221%22%20parent%3D%223%22%3E%3CmxGeometry%20x%3D%221.25%22%20y%3D%22186.5%22%20width%3D%22155%22%20height%3D%2230%22%20as%3D%22geometry%22%2F%3E%3C%2FmxCell%3E%3CmxCell%20id%3D%228%22%20value%3D%22%26lt%3Bul%26gt%3B%26lt%3Bli%26gt%3BBatch%20Processing%26lt%3B%2Fli%26gt%3B%26lt%3Bli%26gt%3BFull%20Load%26lt%3B%2Fli%26gt%3B%26lt%3Bli%26gt%3BTruncate%20%26amp%3Bamp%3B%20Insert%26lt%3B%2Fli%26gt%3B%26lt%3B%2Ful%26gt%3B%22%20style%3D%22text%3Bhtml%3D1%3Balign%3Dleft%3BverticalAlign%3Dmiddle%3BwhiteSpace%3Dwrap%3Brounded%3D0%3B%22%20vertex%3D%221%22%20parent%3D%223%22%3E%3CmxGeometry%20x%3D%2212.25%22%20y%3D%22246.5%22%20width%3D%22140%22%20height%3D%2265.25%22%20as%3D%22geometry%22%2F%3E%3C%2FmxCell%3E%3CmxCell%20id%3D%229%22%20value%3D%22Transactions%22%20style%3D%22text%3Bhtml%3D1%3Balign%3Dcenter%3BverticalAlign%3Dmiddle%3BwhiteSpace%3Dwrap%3Brounded%3D0%3BfontStyle%3D1%22%20vertex%3D%221%22%20parent%3D%223%22%3E%3CmxGeometry%20x%3D%2222.25%22%20y%3D%22308%22%20width%3D%2285%22%20height%3D%2230%22%20as%3D%22geometry%22%2F%3E%3C%2FmxCell%3E%3CmxCell%20id%3D%2210%22%20value%3D%22%26lt%3Bb%26gt%3BData%20Model%3A%20%26lt%3B%2Fb%26gt%3BNone%26amp%3Bnbsp%3B%26lt%3Bdiv%26gt%3B(As-it-is)%26lt%3B%2Fdiv%26gt%3B%22%20style%3D%22text%3Bhtml%3D1%3Balign%3Dcenter%3BverticalAlign%3Dmiddle%3BwhiteSpace%3Dwrap%3Brounded%3D0%3B%22%20vertex%3D%221%22%20parent%3D%223%22%3E%3CmxGeometry%20y%3D%22408%22%20width%3D%22157.5%22%20height%3D%2250%22%20as%3D%22geometry%22%2F%3E%3C%2FmxCell%3E%3CmxCell%20id%3D%2211%22%20value%3D%22%26lt%3Bul%26gt%3B%26lt%3Bli%26gt%3BData%20Cleaning%26lt%3B%2Fli%26gt%3B%26lt%3Bli%26gt%3BData%20Standardization%26lt%3B%2Fli%26gt%3B%26lt%3Bli%26gt%3BData%20Normalization%26lt%3B%2Fli%26gt%3B%26lt%3Bli%26gt%3BDerived%20Columns%26lt%3B%2Fli%26gt%3B%26lt%3Bli%26gt%3BData%20Enrichment%26lt%3B%2Fli%26gt%3B%26lt%3B%2Ful%26gt%3B%22%20style%3D%22text%3Bhtml%3D1%3Balign%3Dleft%3BverticalAlign%3Dmiddle%3BwhiteSpace%3Dwrap%3Brounded%3D0%3B%22%20vertex%3D%221%22%20parent%3D%223%22%3E%3CmxGeometry%20x%3D%224.75%22%20y%3D%22338%22%20width%3D%22162.5%22%20height%3D%2265.25%22%20as%3D%22geometry%22%2F%3E%3C%2FmxCell%3E%3CmxCell%20id%3D%2212%22%20value%3D%22%22%20style%3D%22group%22%20vertex%3D%221%22%20connectable%3D%220%22%20parent%3D%222%22%3E%3CmxGeometry%20x%3D%2226.25%22%20y%3D%2263%22%20width%3D%2296%22%20height%3D%22195.5%22%20as%3D%22geometry%22%2F%3E%3C%2FmxCell%3E%3CmxCell%20id%3D%2213%22%20value%3D%22%22%20style%3D%22html%3D1%3BverticalLabelPosition%3Dbottom%3Balign%3Dcenter%3BlabelBackgroundColor%3D%23ffffff%3BverticalAlign%3Dtop%3BstrokeWidth%3D2%3BstrokeColor%3D%23666666%3Bshadow%3D0%3Bdashed%3D0%3Bshape%3Dmxgraph.ios7.icons.data%3BfillColor%3D%23f5f5f5%3BfontColor%3D%23333333%3B%22%20vertex%3D%221%22%20parent%3D%2212%22%3E%3CmxGeometry%20x%3D%2240%22%20width%3D%2252%22%20height%3D%2255%22%20as%3D%22geometry%22%2F%3E%3C%2FmxCell%3E%3CmxCell%20id%3D%2214%22%20value%3D%22Cleaned%2CStandardized%20Data%22%20style%3D%22text%3Bhtml%3D1%3Balign%3Dcenter%3BverticalAlign%3Dmiddle%3BwhiteSpace%3Dwrap%3Brounded%3D0%3B%22%20vertex%3D%221%22%20parent%3D%2212%22%3E%3CmxGeometry%20x%3D%2236%22%20y%3D%2265%22%20width%3D%2260%22%20height%3D%2230%22%20as%3D%22geometry%22%2F%3E%3C%2FmxCell%3E%3CmxCell%20id%3D%2215%22%20value%3D%22%26lt%3Bb%26gt%3BLoad%26lt%3B%2Fb%26gt%3B%22%20style%3D%22text%3Bhtml%3D1%3Balign%3Dcenter%3BverticalAlign%3Dmiddle%3BwhiteSpace%3Dwrap%3Brounded%3D0%3B%22%20vertex%3D%221%22%20parent%3D%2212%22%3E%3CmxGeometry%20y%3D%22165.5%22%20width%3D%2231%22%20height%3D%2230%22%20as%3D%22geometry%22%2F%3E%3C%2FmxCell%3E%3C%2Froot%3E%3C%2FmxGraphModel%3E&lt;/span&gt;&lt;span style=&quot;color: rgba(0, 0, 0, 0); font-family: monospace; font-size: 0px; text-align: start; text-wrap-mode: nowrap;&quot;&gt;%3CmxGraphModel%3E%3Croot%3E%3CmxCell%20id%3D%220%22%2F%3E%3CmxCell%20id%3D%221%22%20parent%3D%220%22%2F%3E%3CmxCell%20id%3D%222%22%20value%3D%22%22%20style%3D%22group%22%20vertex%3D%221%22%20connectable%3D%220%22%20parent%3D%221%22%3E%3CmxGeometry%20x%3D%22433.75%22%20y%3D%2282%22%20width%3D%22172.25%22%20height%3D%22495.5%22%20as%3D%22geometry%22%2F%3E%3C%2FmxCell%3E%3CmxCell%20id%3D%223%22%20value%3D%22%22%20style%3D%22group%22%20vertex%3D%221%22%20connectable%3D%220%22%20parent%3D%222%22%3E%3CmxGeometry%20width%3D%22172.25%22%20height%3D%22495.5%22%20as%3D%22geometry%22%2F%3E%3C%2FmxCell%3E%3CmxCell%20id%3D%224%22%20value%3D%22%22%20style%3D%22rounded%3D0%3BwhiteSpace%3Dwrap%3Bhtml%3D1%3BfillColor%3Dnone%3Bdashed%3D1%3BstrokeColor%3D%23808080%3Bcontainer%3D0%3B%22%20vertex%3D%221%22%20parent%3D%223%22%3E%3CmxGeometry%20x%3D%2212.25%22%20y%3D%2238%22%20width%3D%22160%22%20height%3D%22457.5%22%20as%3D%22geometry%22%2F%3E%3C%2FmxCell%3E%3CmxCell%20id%3D%225%22%20value%3D%22Silver%20Layer%22%20style%3D%22rounded%3D0%3BwhiteSpace%3Dwrap%3Bhtml%3D1%3BstrokeColor%3D%23666666%3BfillColor%3D%23f5f5f5%3BfontColor%3D%23333333%3B%22%20vertex%3D%221%22%20parent%3D%223%22%3E%3CmxGeometry%20x%3D%2212.25%22%20width%3D%22160%22%20height%3D%2230%22%20as%3D%22geometry%22%2F%3E%3C%2FmxCell%3E%3CmxCell%20id%3D%226%22%20value%3D%22%22%20style%3D%22endArrow%3Dnone%3Bhtml%3D1%3Brounded%3D0%3B%22%20edge%3D%221%22%20parent%3D%223%22%3E%3CmxGeometry%20relative%3D%221%22%20as%3D%22geometry%22%3E%3CmxPoint%20x%3D%2221.25%22%20y%3D%22178%22%20as%3D%22sourcePoint%22%2F%3E%3CmxPoint%20x%3D%22166.25%22%20y%3D%22178%22%20as%3D%22targetPoint%22%2F%3E%3C%2FmxGeometry%3E%3C%2FmxCell%3E%3CmxCell%20id%3D%227%22%20value%3D%22%26lt%3Bb%26gt%3BObject%20Type%26lt%3B%2Fb%26gt%3B%3A%20Table%22%20style%3D%22text%3Bhtml%3D1%3Balign%3Dcenter%3BverticalAlign%3Dmiddle%3BwhiteSpace%3Dwrap%3Brounded%3D0%3B%22%20vertex%3D%221%22%20parent%3D%223%22%3E%3CmxGeometry%20x%3D%221.25%22%20y%3D%22186.5%22%20width%3D%22155%22%20height%3D%2230%22%20as%3D%22geometry%22%2F%3E%3C%2FmxCell%3E%3CmxCell%20id%3D%228%22%20value%3D%22%26lt%3Bul%26gt%3B%26lt%3Bli%26gt%3BBatch%20Processing%26lt%3B%2Fli%26gt%3B%26lt%3Bli%26gt%3BFull%20Load%26lt%3B%2Fli%26gt%3B%26lt%3Bli%26gt%3BTruncate%20%26amp%3Bamp%3B%20Insert%26lt%3B%2Fli%26gt%3B%26lt%3B%2Ful%26gt%3B%22%20style%3D%22text%3Bhtml%3D1%3Balign%3Dleft%3BverticalAlign%3Dmiddle%3BwhiteSpace%3Dwrap%3Brounded%3D0%3B%22%20vertex%3D%221%22%20parent%3D%223%22%3E%3CmxGeometry%20x%3D%2212.25%22%20y%3D%22246.5%22%20width%3D%22140%22%20height%3D%2265.25%22%20as%3D%22geometry%22%2F%3E%3C%2FmxCell%3E%3CmxCell%20id%3D%229%22%20value%3D%22Transactions%22%20style%3D%22text%3Bhtml%3D1%3Balign%3Dcenter%3BverticalAlign%3Dmiddle%3BwhiteSpace%3Dwrap%3Brounded%3D0%3BfontStyle%3D1%22%20vertex%3D%221%22%20parent%3D%223%22%3E%3CmxGeometry%20x%3D%2222.25%22%20y%3D%22308%22%20width%3D%2285%22%20height%3D%2230%22%20as%3D%22geometry%22%2F%3E%3C%2FmxCell%3E%3CmxCell%20id%3D%2210%22%20value%3D%22%26lt%3Bb%26gt%3BData%20Model%3A%20%26lt%3B%2Fb%26gt%3BNone%26amp%3Bnbsp%3B%26lt%3Bdiv%26gt%3B(As-it-is)%26lt%3B%2Fdiv%26gt%3B%22%20style%3D%22text%3Bhtml%3D1%3Balign%3Dcenter%3BverticalAlign%3Dmiddle%3BwhiteSpace%3Dwrap%3Brounded%3D0%3B%22%20vertex%3D%221%22%20parent%3D%223%22%3E%3CmxGeometry%20y%3D%22408%22%20width%3D%22157.5%22%20height%3D%2250%22%20as%3D%22geometry%22%2F%3E%3C%2FmxCell%3E%3CmxCell%20id%3D%2211%22%20value%3D%22%26lt%3Bul%26gt%3B%26lt%3Bli%26gt%3BData%20Cleaning%26lt%3B%2Fli%26gt%3B%26lt%3Bli%26gt%3BData%20Standardization%26lt%3B%2Fli%26gt%3B%26lt%3Bli%26gt%3BData%20Normalization%26lt%3B%2Fli%26gt%3B%26lt%3Bli%26gt%3BDerived%20Columns%26lt%3B%2Fli%26gt%3B%26lt%3Bli%26gt%3BData%20Enrichment%26lt%3B%2Fli%26gt%3B%26lt%3B%2Ful%26gt%3B%22%20style%3D%22text%3Bhtml%3D1%3Balign%3Dleft%3BverticalAlign%3Dmiddle%3BwhiteSpace%3Dwrap%3Brounded%3D0%3B%22%20vertex%3D%221%22%20parent%3D%223%22%3E%3CmxGeometry%20x%3D%224.75%22%20y%3D%22338%22%20width%3D%22162.5%22%20height%3D%2265.25%22%20as%3D%22geometry%22%2F%3E%3C%2FmxCell%3E%3CmxCell%20id%3D%2212%22%20value%3D%22%22%20style%3D%22group%22%20vertex%3D%221%22%20connectable%3D%220%22%20parent%3D%222%22%3E%3CmxGeometry%20x%3D%2226.25%22%20y%3D%2263%22%20width%3D%2296%22%20height%3D%22195.5%22%20as%3D%22geometry%22%2F%3E%3C%2FmxCell%3E%3CmxCell%20id%3D%2213%22%20value%3D%22%22%20style%3D%22html%3D1%3BverticalLabelPosition%3Dbottom%3Balign%3Dcenter%3BlabelBackgroundColor%3D%23ffffff%3BverticalAlign%3Dtop%3BstrokeWidth%3D2%3BstrokeColor%3D%23666666%3Bshadow%3D0%3Bdashed%3D0%3Bshape%3Dmxgraph.ios7.icons.data%3BfillColor%3D%23f5f5f5%3BfontColor%3D%23333333%3B%22%20vertex%3D%221%22%20parent%3D%2212%22%3E%3CmxGeometry%20x%3D%2240%22%20width%3D%2252%22%20height%3D%2255%22%20as%3D%22geometry%22%2F%3E%3C%2FmxCell%3E%3CmxCell%20id%3D%2214%22%20value%3D%22Cleaned%2CStandardized%20Data%22%20style%3D%22text%3Bhtml%3D1%3Balign%3Dcenter%3BverticalAlign%3Dmiddle%3BwhiteSpace%3Dwrap%3Brounded%3D0%3B%22%20vertex%3D%221%22%20parent%3D%2212%22%3E%3CmxGeometry%20x%3D%2236%22%20y%3D%2265%22%20width%3D%2260%22%20height%3D%2230%22%20as%3D%22geometry%22%2F%3E%3C%2FmxCell%3E%3CmxCell%20id%3D%2215%22%20value%3D%22%26lt%3Bb%26gt%3BLoad%26lt%3B%2Fb%26gt%3B%22%20style%3D%22text%3Bhtml%3D1%3Balign%3Dcenter%3BverticalAlign%3Dmiddle%3BwhiteSpace%3Dwrap%3Brounded%3D0%3B%22%20vertex%3D%221%22%20parent%3D%2212%22%3E%3CmxGeometry%20y%3D%22165.5%22%20width%3D%2231%22%20height%3D%2230%22%20as%3D%22geometry%22%2F%3E%3C%2FmxCell%3E%3C%2Froot%3E%3C%2FmxGraphModel%3E&lt;/span&gt;" style="shape=singleArrow;whiteSpace=wrap;html=1;fillColor=#dae8fc;strokeColor=#6c8ebf;container=0;" parent="UnsoL70KzH1k03Q2WHb0-153" vertex="1">
          <mxGeometry x="371.25" y="203.72" width="35" height="27" as="geometry" />
        </mxCell>
        <mxCell id="UnsoL70KzH1k03Q2WHb0-5" value="" style="rounded=0;whiteSpace=wrap;html=1;fillColor=none;dashed=1;strokeColor=#808080;container=0;" parent="UnsoL70KzH1k03Q2WHb0-153" vertex="1">
          <mxGeometry x="187.12999999999994" y="15" width="617.25" height="542" as="geometry" />
        </mxCell>
        <mxCell id="UnsoL70KzH1k03Q2WHb0-39" value="" style="endArrow=none;html=1;rounded=0;" parent="UnsoL70KzH1k03Q2WHb0-153" edge="1">
          <mxGeometry width="50" height="50" relative="1" as="geometry">
            <mxPoint x="7.5" y="354" as="sourcePoint" />
            <mxPoint x="142.5" y="354.0243902439024" as="targetPoint" />
          </mxGeometry>
        </mxCell>
        <mxCell id="UnsoL70KzH1k03Q2WHb0-3" value="&lt;font style=&quot;font-size: 24px;&quot;&gt;Sources&lt;/font&gt;" style="rounded=0;whiteSpace=wrap;html=1;strokeColor=none;container=0;" parent="UnsoL70KzH1k03Q2WHb0-153" vertex="1">
          <mxGeometry x="17.5" width="120" height="30" as="geometry" />
        </mxCell>
        <mxCell id="UnsoL70KzH1k03Q2WHb0-11" value="" style="image;aspect=fixed;html=1;points=[];align=center;fontSize=12;image=img/lib/azure2/general/Folder_Blank.svg;container=0;" parent="UnsoL70KzH1k03Q2WHb0-153" vertex="1">
          <mxGeometry x="39.78" y="150" width="55.44" height="45" as="geometry" />
        </mxCell>
        <mxCell id="UnsoL70KzH1k03Q2WHb0-14" value="" style="image;aspect=fixed;html=1;points=[];align=center;fontSize=12;image=img/lib/azure2/general/Media_File.svg;container=0;" parent="UnsoL70KzH1k03Q2WHb0-153" vertex="1">
          <mxGeometry x="72.5" y="169" width="28.44" height="35" as="geometry" />
        </mxCell>
        <mxCell id="UnsoL70KzH1k03Q2WHb0-17" value="CRM" style="text;html=1;align=center;verticalAlign=middle;whiteSpace=wrap;rounded=0;container=0;" parent="UnsoL70KzH1k03Q2WHb0-153" vertex="1">
          <mxGeometry x="32.940000000000026" y="195" width="60" height="30" as="geometry" />
        </mxCell>
        <mxCell id="UnsoL70KzH1k03Q2WHb0-18" value="ERP" style="text;html=1;align=center;verticalAlign=middle;whiteSpace=wrap;rounded=0;container=0;" parent="UnsoL70KzH1k03Q2WHb0-153" vertex="1">
          <mxGeometry x="35.22000000000003" y="304" width="60" height="30" as="geometry" />
        </mxCell>
        <mxCell id="UnsoL70KzH1k03Q2WHb0-1" value="" style="rounded=0;whiteSpace=wrap;html=1;fillColor=none;dashed=1;strokeColor=#808080;container=0;" parent="UnsoL70KzH1k03Q2WHb0-153" vertex="1">
          <mxGeometry y="15" width="160" height="539" as="geometry" />
        </mxCell>
        <mxCell id="UnsoL70KzH1k03Q2WHb0-16" value="" style="image;aspect=fixed;html=1;points=[];align=center;fontSize=12;image=img/lib/azure2/general/Folder_Blank.svg;container=0;" parent="UnsoL70KzH1k03Q2WHb0-153" vertex="1">
          <mxGeometry x="37.5" y="250" width="55.44" height="45" as="geometry" />
        </mxCell>
        <mxCell id="UnsoL70KzH1k03Q2WHb0-15" value="" style="image;aspect=fixed;html=1;points=[];align=center;fontSize=12;image=img/lib/azure2/general/Media_File.svg;container=0;" parent="UnsoL70KzH1k03Q2WHb0-153" vertex="1">
          <mxGeometry x="72.5" y="270" width="28.44" height="35" as="geometry" />
        </mxCell>
        <mxCell id="UnsoL70KzH1k03Q2WHb0-52" value="&lt;b&gt;Object Type&lt;/b&gt;: CSV Files" style="text;html=1;align=center;verticalAlign=middle;whiteSpace=wrap;rounded=0;container=0;" parent="UnsoL70KzH1k03Q2WHb0-153" vertex="1">
          <mxGeometry x="2.5" y="370" width="155" height="30" as="geometry" />
        </mxCell>
        <mxCell id="UnsoL70KzH1k03Q2WHb0-53" value="&lt;b&gt;Interface:&lt;/b&gt; Files in Folder" style="text;html=1;align=center;verticalAlign=middle;whiteSpace=wrap;rounded=0;container=0;" parent="UnsoL70KzH1k03Q2WHb0-153" vertex="1">
          <mxGeometry y="410" width="155" height="30" as="geometry" />
        </mxCell>
        <mxCell id="UnsoL70KzH1k03Q2WHb0-43" value="" style="rounded=0;whiteSpace=wrap;html=1;fillColor=none;dashed=1;strokeColor=#808080;container=0;" parent="UnsoL70KzH1k03Q2WHb0-153" vertex="1">
          <mxGeometry x="608.5" y="96" width="160" height="441.32" as="geometry" />
        </mxCell>
        <mxCell id="UnsoL70KzH1k03Q2WHb0-51" value="Gold Layer" style="rounded=0;whiteSpace=wrap;html=1;strokeColor=#d6b656;fillColor=#fff2cc;container=0;" parent="UnsoL70KzH1k03Q2WHb0-153" vertex="1">
          <mxGeometry x="607.5" y="53.510000000000005" width="160" height="30" as="geometry" />
        </mxCell>
        <mxCell id="UnsoL70KzH1k03Q2WHb0-57" value="" style="html=1;verticalLabelPosition=bottom;align=center;labelBackgroundColor=#ffffff;verticalAlign=top;strokeWidth=2;strokeColor=#d6b656;shadow=0;dashed=0;shape=mxgraph.ios7.icons.data;fillColor=#fff2cc;container=0;" parent="UnsoL70KzH1k03Q2WHb0-153" vertex="1">
          <mxGeometry x="654.5" y="118" width="52" height="55" as="geometry" />
        </mxCell>
        <mxCell id="UnsoL70KzH1k03Q2WHb0-61" value="Business -Ready Data" style="text;html=1;align=center;verticalAlign=middle;whiteSpace=wrap;rounded=0;container=0;" parent="UnsoL70KzH1k03Q2WHb0-153" vertex="1">
          <mxGeometry x="623.5" y="176" width="130" height="30" as="geometry" />
        </mxCell>
        <mxCell id="UnsoL70KzH1k03Q2WHb0-70" value="" style="endArrow=none;html=1;rounded=0;" parent="UnsoL70KzH1k03Q2WHb0-153" edge="1">
          <mxGeometry relative="1" as="geometry">
            <mxPoint x="615" y="215.73000000000002" as="sourcePoint" />
            <mxPoint x="760" y="215.73000000000002" as="targetPoint" />
          </mxGeometry>
        </mxCell>
        <mxCell id="UnsoL70KzH1k03Q2WHb0-84" value="&lt;b&gt;Object Type&lt;/b&gt;: Views" style="text;html=1;align=center;verticalAlign=middle;whiteSpace=wrap;rounded=0;container=0;" parent="UnsoL70KzH1k03Q2WHb0-153" vertex="1">
          <mxGeometry x="619" y="235.5" width="125" height="30" as="geometry" />
        </mxCell>
        <mxCell id="UnsoL70KzH1k03Q2WHb0-85" value="&amp;nbsp;No&lt;b&gt; Load&lt;/b&gt;" style="text;html=1;align=center;verticalAlign=middle;whiteSpace=wrap;rounded=0;container=0;" parent="UnsoL70KzH1k03Q2WHb0-153" vertex="1">
          <mxGeometry x="617.5" y="274.5" width="66" height="30" as="geometry" />
        </mxCell>
        <mxCell id="UnsoL70KzH1k03Q2WHb0-87" value="Transactions" style="text;html=1;align=center;verticalAlign=middle;whiteSpace=wrap;rounded=0;fontStyle=1;container=0;" parent="UnsoL70KzH1k03Q2WHb0-153" vertex="1">
          <mxGeometry x="616.5" y="294.5" width="85" height="30" as="geometry" />
        </mxCell>
        <mxCell id="UnsoL70KzH1k03Q2WHb0-88" value="&lt;ul&gt;&lt;li&gt;Data Integration&lt;/li&gt;&lt;li&gt;Data Aggrigations&lt;/li&gt;&lt;li&gt;Business Logic&lt;/li&gt;&lt;/ul&gt;" style="text;html=1;align=left;verticalAlign=middle;whiteSpace=wrap;rounded=0;container=0;" parent="UnsoL70KzH1k03Q2WHb0-153" vertex="1">
          <mxGeometry x="600.5" y="317.75" width="162.5" height="65.25" as="geometry" />
        </mxCell>
        <mxCell id="UnsoL70KzH1k03Q2WHb0-89" value="&lt;b&gt;Data Model:&amp;nbsp;&lt;/b&gt;" style="text;html=1;align=center;verticalAlign=middle;whiteSpace=wrap;rounded=0;container=0;" parent="UnsoL70KzH1k03Q2WHb0-153" vertex="1">
          <mxGeometry x="577.5" y="365" width="157.5" height="50" as="geometry" />
        </mxCell>
        <mxCell id="UnsoL70KzH1k03Q2WHb0-90" value="&lt;ul&gt;&lt;li&gt;Star Schema&lt;/li&gt;&lt;li&gt;Aggregate Table&lt;/li&gt;&lt;li&gt;Flat Table&lt;/li&gt;&lt;/ul&gt;" style="text;html=1;align=left;verticalAlign=middle;whiteSpace=wrap;rounded=0;container=0;" parent="UnsoL70KzH1k03Q2WHb0-153" vertex="1">
          <mxGeometry x="600.5" y="390" width="162.5" height="65.25" as="geometry" />
        </mxCell>
        <mxCell id="UnsoL70KzH1k03Q2WHb0-9" value="&lt;font style=&quot;font-size: 24px;&quot;&gt;Consumer&lt;/font&gt;" style="rounded=0;whiteSpace=wrap;html=1;strokeColor=none;container=0;" parent="UnsoL70KzH1k03Q2WHb0-153" vertex="1">
          <mxGeometry x="847.5" y="4.5" width="120" height="21.946308724832218" as="geometry" />
        </mxCell>
        <mxCell id="UnsoL70KzH1k03Q2WHb0-91" value="" style="image;aspect=fixed;html=1;points=[];align=center;fontSize=12;image=img/lib/azure2/analytics/Power_BI_Embedded.svg;container=0;" parent="UnsoL70KzH1k03Q2WHb0-153" vertex="1">
          <mxGeometry x="847.5" y="53.51342281879195" width="35.63461538461539" height="47.51282051282051" as="geometry" />
        </mxCell>
        <mxCell id="UnsoL70KzH1k03Q2WHb0-93" value="" style="shape=image;verticalLabelPosition=bottom;verticalAlign=top;imageAspect=0;aspect=fixed;image=data:image/png,iVBORw0KGgoAAAANSUhEUgAAAOEAAADhCAMAAAAJbSJIAAABjFBMVEX///////79/////f////z///r//fzujyH6//7///Vig49ah5v7//3odizndy7T4uVahZf/+uf//eX13Mj129/IIDj/0NgaRXztjiXeez/sdCzneCjodTTI1t8dRYIeRnjjqmfmky3dm1DAI0DDITetCSwmRGf55dDnyarjg0baciTo8fVaZo/M0Ni2x86UrbZ/naVZZZVVWYvljzXCws9vmaS3P0o7VILz3rbhpVpvjqF2fZvkvcbj4+hTWIWho8FrcZRvj5dtm6vK3ODBz9CssLppiY1snKh0l62uwsLj9fX/89LftomUo6tuiJGBk59nlJP03rT526KuytPflCvTllfzjSHrlCWDoq9Uipvil0Pgo2npqVfnoFrerHb3jhr/3LzheD71cyCPtL5WZIXqxpznsov06dvQfUTn0L5uc4pXW3efocGJi7KepLXeiVXmhTTCmqXelWj5ub/b8Py2Xm3COFE9U3hVaoccOGO8RlfEIi0hRYnAFTqhM0Tgy8zqmaOYCiq3aHFiZny9nnklAAARkUlEQVR4nO2diV8TZxrH33N4g2M4jOVQwSgeayIINVagScGjClStxWqttVsslha7tLu1bL22x/7j+zzvO8c7OYawMOT4zA8IybyTZL553vt5nzeEpEqVKlWqVKlSpUqVKlWqVKlSpUqVKlWqVKlSpUqVKlWqVKnqiFJq/rX6QpISlVIqxZQruxbRperGiROTfaJrCRUvfLw4t7jU6utITowXFku3S6us1ReSmDgvfHrrWmm11deRoDRhF+dSKkjh01JXE0qyvHjt9lxnEe6q3lcMCePLIW2z/gCYhSlGKWPwX9XWkYwxu/EDwtK1uUlWdQoRInxBKV14CudcP+ZEkFYLGCRcRSYD14Y31SYIrx4uF2x4rTRpp1afQ4VgKMwdrB2aFTSSlPChC8xd8FcnjwlfnBSAEGoaYYnSSBcHbMcgOygGH5hwNWtrpTxA/LyhCIEFgssNLo4GNPUI9fEQA3MncrkS1QaECEjhE8dSKAUaNCCEg1CeMG/6okzn0qXgqqEMazOSKIZw4EdoxAOBiBWFQgh5SmQwW+GHH/IoXcswWwoIb5WWVHhAMWChlqGk8LKBUkTnCF77pgcqvAil5MDK4MrKyoZjE+o6kjJ1cTLQ6upi6VZpajU8Mllgum4JXg/zPCuAlpcLilOHt5qQEYcoMfDJ57NffTX7yaBdlzKsY8BKdxZ9lbSulRZD3e1jHKwY2lA/5d69udtzc/f6FG2DtgJvMisn3x8eHn7/85VMtOQIBy53quTpFpRBJDT/jBb7dGa0yyE8pbf/0OND/b192NS2nFFgyzVwcrgn39NzapAyq2WDP442DHBugRmv3QYbBkfu3QXCSF0KL8eQ8FD/of4+uM9aPiEgsMYMCO263TTjSi1N+fp2agoIS5emQt0psEhrAS/g0ICQOm1BSCKE4fW4AlsKbL19LUNdWro9t6psdTKhy6D9tpts7o3xw2cjoLTbw7YkZDGEBAuW8Do1eowPhW/J78jp49A8WB3QtiRsbEOvB0c9wV0Y4yOhf8Sg004lFH7vJOjBuGQZxvhAGByhwgwHO5MwGFT4DykQQjmsnsWI9K07gDCSViWXYE0ztxSye6YMh7kdQBh3Pa5a/hi6MZMxA6IOJxR6FqOLCaFSwfHh3GTjUzqd0NFj/NjZxLYkbNTi1zvXG+M3PqUtCZsvh0QVsKZZUo3P6HBCxgp3pqYu3eg0wuZzKWEuNBiKxUxMtJrQezMRtuU4cyTJYDACtqYOvd61NYPKiYPzcbFTL1hGWTACJuRgJxOp0LMyR67aug/67Kv8MDB++dnVKt2/muGOZYRqpwTO//ZdR/V50g/6+xGwf/W6naTvKxipJAitJ0UzK7P5B+/7yj948ODLL98ffgiEPY8e5fP5IGl4GG4+H2BOTDYDa6p7vf29vf2+es39Q2BE/SCa1FtINtdSV7lAeApZfAET2C//aHgYfh+CgpQeoM6fGlQx9QqUOaa+QBxLaD/vnkG11LvMRKJTUw4M2dXg7HAICIbKgwHzD+Avn3/U8yhvsT/qGf5ypdZXY0lIpb441EiPH1cf6V9W2g+UlPT8LBv4fDjUwx40Vo9FGCSBXXt6gNCNecGA0M+JVYSPrbQDIcQpd2fl6cOHPYGMITGL5jGrYnH0NNwDj06tuDGE2oaXsOLsf+zJpjRcfhLeTTyX4tSYO/D17MlZX0+enHzy5MnTfE8egPJfzVp6+vTp7NOvB2JzKYNyeOfu3N27c77u4n0D2e8/DBPvFUiizhrquuiHGRgc8JVxMnAzsHLyUR4qllMrA5nMgK3BAaXi6lKo+LWTIqLlZWwPwZrXa5IKTDgJN5FQErkjLedRJpNRClr8Bz1/H54ddFU4B4Mmx4VsFiE1f/4EFa4hcrhxc4c9BIKz+v1A2KtbfBYk4dQrAcJkRUm02WYSroBBr224ziyG6aCED6FHw4VkRFJ0/ktrIjiYfIPmXFiz+oAvhTVXt8ulEfuisF/6qJawWpJyaFOZ0ITQ26u3tKENe97Njy2UEJwKvfQCJxJF1xGC4aRZfYH9b9I5hM2PnuQ3njJQElnEue2rLQmbtqE48v2FkZE1+DsiHcymXUdIz40c+3nkePbCmiYk3WdDcm7t2YW10dHs8SMZB1vBziSMOxcIjx0fHT0MhILxcEmRpZ0I6cGv7NuVDUdGDx87fHz0giF063wcjQn12B6XESXa9a7zoe+uHAJhVhO6SOjWTtjEEe4XRZxweReL5pMDIzwYMaU7wvYal+QJgzSdQ9Etvp9ItVeJcqz+/S5a/P+f0F7dJmUmQaviJIaKVoEHYkO9aLh8UQtGb/vOFQoGh6oPB6LhoYMhFGDEy5VKZaayUEh0LR8u4rr08eLiVHio8ZqoGu2JkPDLlenp6eJ8IdFaFQiXL5VKpW/DQ54N8ziNuA82JB6hllnXhm8iHLBhEbS+qWQmwQYRV+QjoWVDuAYqM+fO379/9So25DFGbIoQV32zGzcmb4AK+GK6gcfVi5crxeL09LxKdK4N516ihHosKzOZzODgQCYj42admiNEoGAtHDNvgUddcnnGECbaPtYhpB4i+qCwtYqp6Joi1G+j57j8OjuwYUsIqVkTA1egdH/HETHNcdOEhDiIyZllw1YREm/VT7i0a+81DTHxC37UDDOEtIW51CA6jhco0fjZTRPSYEkcCQhbZ0M/QQrHxB40fvYucqm3bJH6b9FCQuuaPAd3zNOrCBs79JkONvIQW1yXMu37JsZpoyPPzHHtpqry6AuLEMZE0VQptfeaEr9Iu4ioCWm0Pawa8+8LmLlAapzSpk/jXzW6MaxeFJyEs9lCbTx/fr5GX68dz2azhw9nv6tJev78+YaCV7MbVA2N2d4c83ptyg2rax0dRcjeI/iCzITNVLTXxmoqF2gyKBB+P3KhVkh4GAizcD+LClJG1i78AB+Nsp2NUlh+qXLBIyzbrijPX7pnwutLoVZL10qlS6uBlpYKurGwELFTsjEygixRZbUF4X9NyuHjo6M/EOHaUZpQpMubC5amkbC4sBAevGkCOOmex8SrYQhIabFkh7yAPr7O7OJAda+LncvWk0VapdFnz85DiYsAClZ+UZy2hX1v68jMTfPJij3PdKzOedE8CIc3l8IwmNIiEoogd+HnyRQ5lx2tFcDhbbZOWvbYsfPaORkSSsbKxYBLo/l83oHKTRNJtg+Ei7bRqmy4eF1FbBgS1uZFIDyMhHVyafbCD1ilhCUKShgrrxus9fV1n7BoIRdvmkpg74STl3xNYVxPKRrX0xcph7rtYOScrjabzqTQhGR/gBZCWdeK5fDFC7CU1vSMb731FxVfWA6d/SiHVt3ljYCjcT2Rk6nmPTey1rgg1ksZhboUamrbGpKUt0Afaf344z90Dl34yD8Cukjc/alLXT1gYzrIx2stfF89FJwqH5LufLONn376W41G/Lp0pCbp559/PsJIWA51DRm98Ms6h87bH+i+tYfhK9brtXlDOYq+a+Wv8aJeHG9Edp9G1qQL73mmhyN1MKmOwqXe2MLr03hvYCam99uLEdMvNeKxE2HN9kt1v1uarhIVLe5564yKWHoAHL9OYRdjC7+3q++RlhIqr/DodSU6OLvxs3dFGCwrYS0mNFaD3hbXit3ooWlC6jhmIKZHGi0e4+ujLggXNxvIhmqKUJqQRBxPS88VQ1pqQzQbrnYTcIPD/L3aEOPxMcJft05u4BBtJSF00VzsT+rBouPsuRyarU2U/0taPsbXziie+6dRjsctHGy2HDJyx6gcvNiB2dBlQHjr1jWrHOpJzdzpiaNv3rw5856Iay+asyG+4tmxsaGxoaET2F8yVSkJxvgFmqRXWBN+Wpqz6lJtNSQ8+ubomfdctceahqIfDQnHNaEjNSF0zbgmLAIhS9L35FLOcDhxMzjCAhuCEiPEMk4uv8CBxXyy/kMXxirRwYRFmKAN9SYuFzfn5+c3twokSR+wnnKD6tLaouVACKlNxZN0r/lBTeH7HQyhl2ZC+GOXxu9ZZq7dmthOvhyGPfBgQJZsi8j8G+9x4jb0CbGbamahk12rbwjDjstuCGvWtdWJNYkhpP4VHGzA3q4IN0aeZb3Vl4IwWs+LE5NLW6Rd2lCvvjx2/AgUJVbXT9XWhDvWNOLc2rMsri/NHtHrvDuOcEcbim/WRnG+O3vhiNm8rusIycZ3/zLakHpDyTqndDihymQcmZHwixVN3TjCtibcsRwSJiV3Mg7P6GCEziPc2YZECg7XzNC52yAWtOWENa2tXnIf2lBYhNotH93W0lXaC6q3yzQ2NJuXWpOjZgQ81JCQVm+Uuc9SQKCotYZVoivDzZ1GwKN/vgdGCl3ihLoCgazLi/jh9Ng2Ax04JjLhKTgPdXZ8fGho/NUJFuk/UbMdLIsLDt+rOC7FcnKWNvTtL9ua8MwvuRo5NDbfwgdUKLwshM75crnw8uX40Bjk07OrNSGkZYa7tiYHaDZDzv36+vUVX69fb29vX9nWmfToxPb26+0gaRv1ay52A1JOuJr/4IMP/v1BRGNjb+FnCI6DgqP4AOOAk8yluKWFzL0+aoA8vUG24JGdNHH03X9yMnbqXij126uhUGNjQ+OYReHe2zEjK3Ho1cuEY7mBEArdaw3lU7wBGa6JCf+ehw4Pr+Ri3S8y46rfxsdsRE04rjVkWH29fTs2/lIlTMiIkhHCCY9wYsK7HxK+OaoJ42wII3amfkNz2Ub0LTk+HiUcQ8JkbYhVOedAiOYx8jknNKPOmXbSxJWcs1M5LGJWHPeFM6VjYC34e2vy6VCQBtXry4R3/pDQogPh6Ykzvt69e3f69JnTfgGcOP0uSDr9Dk77T47HVQxQrrEcvgqL4iuQBtN8OttaSWehpkmUUEfi898/DPX7h7/Dwz+M/c788WEkCcVtwpqLw2+euY4bJl/0hQ9OmIJ4dmqyJknV7+ztHyKtv+lP0KeJfzqXplcUvkSDaELs00CTf4LUebuDDj+s6ZfGncydm7h8ZKvc+JSW90trtKuxBeeblcr6+ouLjU9pa8ImxhZsXq9r6l5CpuZnZrqaUKjOtuHO5ZAgYbHYsYRNlEPepYTh/jIBYWTLGbtV7ChCLyTKBCZg4BcNCb04MKm/28K13EmdROh9JU4k4rM6l3pfuWJ5MNqasLamYUHsi7eNpNr0CP0jNT75tiasUw6Zv+26J3fTay3Cba+q1GmEIvodMkxtVrX4XHs9o8vEO4zQZRHCeVyPXrFaCxMrJTu1HOpFamVbQFicnr5sH+LaPd+JdSnmPCk4uRcGD1QwBAZ/rSP/LevM7D+pHQlxcb41q28l4TfpcLK1HsbxFD1CK85noRyZ4a2a1RftQMiVkrkraMJ3f77HHSs8CNKow7ZmimFYz3QQ3eMfWSgTe+NcvRMfO/sKJ9ZenVBuojPcTUnhPgsi99evqL9yPPRSaEJHkq2KHbvkcYasSGg7W6iucn9bKBYXNk+weg3KAcvFxc+O4+Qcnsuhl8YmxIgkcq8y46nywmTYYnBkpojlMPptSDiPU+Bmo8s2+PJDYtZ3O1Iq/B/ZyVpvrifZRVsmhnDLPoSri+3vKGG4GZTDIbtSh7T8O8mMxwv3dNE+G+ZSa/5XLyqUEXcf9ktnptcjoydEsQsbC4JpHBN5lzDBTuIYSoK5k+s1+7L6e9eotQEppUAITf562C/14p0tQvPQ/3ZPHHi0uCSaTYe8UAuo+lzXuiBhhzLppe44i1Fc16MnP8Bb0Mj3Hwq9E2u4TUPLCb1YGRPfRSIuW1JbEfL5oiH0Zexkh0hSb2MGvsMGDQcmzKLUdZV2nlZFlHiEGKYm9E1IKM0RXBqFshdUekF/nJo+eRvUNTsr2EEXCGfM6Ck6i7HvMXatEhVc97zjZqI6W1RCTVNMCTtbhrDSvYRcE87MdD3hdNcSYl1aWV+vdG8uhZrm5kdbWz9+FOMD7nB1SbueKlWqVKlSpUqVKlWqVKlSpUqVKlWqVKlSpUqVKlWqVKlSJaX/AVDFiEksZXEPAAAAAElFTkSuQmCC;container=0;" parent="UnsoL70KzH1k03Q2WHb0-153" vertex="1">
          <mxGeometry x="902.5" y="51.31879194630872" width="52.40384615384615" height="52.40384615384615" as="geometry" />
        </mxCell>
        <mxCell id="UnsoL70KzH1k03Q2WHb0-94" value="BI &amp;amp; Reporting" style="text;html=1;align=center;verticalAlign=middle;whiteSpace=wrap;rounded=0;container=0;" parent="UnsoL70KzH1k03Q2WHb0-153" vertex="1">
          <mxGeometry x="837.5" y="110.57382550335572" width="130" height="21.946308724832218" as="geometry" />
        </mxCell>
        <mxCell id="UnsoL70KzH1k03Q2WHb0-96" value="" style="sketch=0;html=1;aspect=fixed;strokeColor=none;shadow=0;fillColor=#3B8DF1;verticalAlign=top;labelPosition=center;verticalLabelPosition=bottom;shape=mxgraph.gcp2.big_query;container=0;" parent="UnsoL70KzH1k03Q2WHb0-153" vertex="1">
          <mxGeometry x="880.52" y="162.14765100671144" width="41.16147435897436" height="41.57371794871795" as="geometry" />
        </mxCell>
        <mxCell id="UnsoL70KzH1k03Q2WHb0-97" value="Ad-Hoc&lt;div&gt;SQL&amp;nbsp; Queries&lt;/div&gt;" style="text;html=1;align=center;verticalAlign=middle;whiteSpace=wrap;rounded=0;container=0;" parent="UnsoL70KzH1k03Q2WHb0-153" vertex="1">
          <mxGeometry x="842.5" y="215.7332214765101" width="130" height="21.946308724832218" as="geometry" />
        </mxCell>
        <mxCell id="UnsoL70KzH1k03Q2WHb0-98" value="" style="editableCssRules=.*;html=1;shape=image;verticalLabelPosition=bottom;labelBackgroundColor=#ffffff;verticalAlign=top;aspect=fixed;imageAspect=0;image=data:image/svg+xml,PHN2ZyB4bWxucz0iaHR0cDovL3d3dy53My5vcmcvMjAwMC9zdmciIHhtbG5zOnY9Imh0dHBzOi8vdmVjdGEuaW8vbmFubyIgd2lkdGg9IjE2Ljk3OTk5OTU0MjIzNjMyOCIgaGVpZ2h0PSIyMCIgdmlld0JveD0iMCAwIDE2Ljk3OTk5OTU0MjIzNjMyOCAyMCI+JiN4YTsJPHN0eWxlIHR5cGU9InRleHQvY3NzIj4mI3hhOwkuc3Qwe2ZpbGw6IzY2OWRmNjt9JiN4YTsJLnN0MXtmaWxsOiM0Mjg1ZjQ7fSYjeGE7CS5zdDJ7ZmlsbDojYWVjYmZhO30mI3hhOwk8L3N0eWxlPiYjeGE7CTxnIGNsYXNzPSJzdDAiPiYjeGE7CQk8cGF0aCBkPSJNOC40OSAxMC4yOUwuMjQgNS4zNSA4LjQ5LjU4bDguMjQgNC42N3pNMS43NiA1LjM2bDYuNzIgNCA2LjcyLTQuMTEtNi43MS0zLjc4eiIvPiYjeGE7CQk8cGF0aCBkPSJNOC40OSAxOS40NEwuMjEgMTMuODkgOC40OSA5LjNsOC4xNSA0LjY0em0tNi44LTUuNWw2LjggNC41NiA2LjctNC41LTYuNy0zLjgyeiIvPiYjeGE7CTwvZz4mI3hhOwk8ZyBjbGFzcz0ic3QxIj4mI3hhOwkJPHBhdGggZD0iTS42MTMgNS41MDJsLjY3NS0uMzcxIDcuNDc3IDEzLjYtLjY3NS4zNzF6Ii8+JiN4YTsJCTxwYXRoIGQ9Ik04LjE5NCAxOC44MjZsNy4zMDEtMTMuNTU5LjY3OC4zNjUtNy4zMDEgMTMuNTU5ek0uNzE2IDEzLjY4N0w4LjA5Ni45MDRsLjY2Ny4zODUtNy4zOCAxMi43ODN6Ii8+JiN4YTsJCTxwYXRoIGQ9Ik04LjE5NCAxLjIxNGwuNjY5LS4zODEgNy40MDUgMTIuOTg3LS42NjkuMzgxeiIvPiYjeGE7CQk8cGF0aCBkPSJNOC4xMy45NmguNzdWMTguOWgtLjc3ek0uNTUgNS40M2guNzd2OC42NkguNTV6bTE0Ljk3LS4wOWguNzdWMTRoLS43N3oiLz4mI3hhOwk8L2c+JiN4YTsJPGcgY2xhc3M9InN0MiI+JiN4YTsJCTxjaXJjbGUgY3g9IjguNTIiIGN5PSIxLjA3IiByPSIxLjA3Ii8+JiN4YTsJCTxjaXJjbGUgY3g9IjE1LjkxIiBjeT0iNS4zNCIgcj0iMS4wNyIvPiYjeGE7CQk8Y2lyY2xlIGN4PSIxLjA3IiBjeT0iNS4zNCIgcj0iMS4wNyIvPiYjeGE7CQk8Y2lyY2xlIGN4PSI4LjUyIiBjeT0iOS45MyIgcj0iMS42OCIvPiYjeGE7CQk8Y2lyY2xlIGN4PSIxNS45MSIgY3k9IjEzLjk0IiByPSIxLjA3Ii8+JiN4YTsJCTxjaXJjbGUgY3g9IjEuMDciIGN5PSIxMy45NCIgcj0iMS4wNyIvPiYjeGE7CQk8Y2lyY2xlIGN4PSI4LjUyIiBjeT0iMTguOTMiIHI9IjEuMDciLz4mI3hhOwkJPHBhdGggZD0iTTguNDkgMTAuMjlMLjI0IDUuMzUgOC40OS41OGw4LjI0IDQuNjd6TTEuNzYgNS4zNmw2LjcyIDQgNi43Mi00LjExLTYuNzEtMy43OHoiLz4mI3hhOwkJPHBhdGggZD0iTTguNDkgMTkuNDRMLjIxIDEzLjg5IDguNDkgOS4zbDguMTUgNC42NHptLTYuOC01LjVsNi44IDQuNTYgNi43LTQuNS02LjctMy44MnoiLz4mI3hhOwkJPHBhdGggZD0iTS42MTMgNS41MDJsLjY3NS0uMzcxIDcuNDc3IDEzLjYtLjY3NS4zNzF6Ii8+JiN4YTsJCTxwYXRoIGQ9Ik04LjE5NCAxOC44MjZsNy4zMDEtMTMuNTU5LjY3OC4zNjUtNy4zMDEgMTMuNTU5ek0uNzE2IDEzLjY4N0w4LjA5Ni45MDRsLjY2Ny4zODUtNy4zOCAxMi43ODN6Ii8+JiN4YTsJCTxwYXRoIGQ9Ik04LjE5NCAxLjIxNGwuNjY5LS4zODEgNy40MDUgMTIuOTg3LS42NjkuMzgxeiIvPiYjeGE7CQk8cGF0aCBkPSJNOC4xMy45NmguNzdWMTguOWgtLjc3ek0uNTUgNS40M2guNzd2OC42NkguNTV6bTE0Ljk3LS4wOWguNzdWMTRoLS43N3oiLz4mI3hhOwk8L2c+JiN4YTsJPGcgY2xhc3M9InN0MCI+JiN4YTsJCTxjaXJjbGUgY3g9IjguNTIiIGN5PSIxLjA3IiByPSIxLjA3Ii8+JiN4YTsJCTxjaXJjbGUgY3g9IjE1LjkxIiBjeT0iNS4zNCIgcj0iMS4wNyIvPiYjeGE7CQk8Y2lyY2xlIGN4PSIxLjA3IiBjeT0iNS4zNCIgcj0iMS4wNyIvPiYjeGE7CQk8Y2lyY2xlIGN4PSI4LjUyIiBjeT0iOS45MyIgcj0iMS42OCIvPiYjeGE7CQk8Y2lyY2xlIGN4PSIxNS45MSIgY3k9IjEzLjk0IiByPSIxLjA3Ii8+JiN4YTsJCTxjaXJjbGUgY3g9IjEuMDciIGN5PSIxMy45NCIgcj0iMS4wNyIvPiYjeGE7CQk8Y2lyY2xlIGN4PSI4LjUyIiBjeT0iMTguOTMiIHI9IjEuMDciLz4mI3hhOwk8L2c+JiN4YTs8L3N2Zz4=;container=0;" parent="UnsoL70KzH1k03Q2WHb0-153" vertex="1">
          <mxGeometry x="875.97" y="264.1979865771812" width="47.51282051282051" height="55.8974358974359" as="geometry" />
        </mxCell>
        <mxCell id="UnsoL70KzH1k03Q2WHb0-99" value="Machine Learning" style="text;html=1;align=center;verticalAlign=middle;whiteSpace=wrap;rounded=0;container=0;" parent="UnsoL70KzH1k03Q2WHb0-153" vertex="1">
          <mxGeometry x="847.5" y="330.9513422818792" width="130" height="21.946308724832218" as="geometry" />
        </mxCell>
        <mxCell id="UnsoL70KzH1k03Q2WHb0-8" value="" style="rounded=0;whiteSpace=wrap;html=1;fillColor=none;dashed=1;strokeColor=#808080;container=0;" parent="UnsoL70KzH1k03Q2WHb0-153" vertex="1">
          <mxGeometry x="827.5" y="14.829999999999998" width="160" height="538.35" as="geometry" />
        </mxCell>
        <mxCell id="UnsoL70KzH1k03Q2WHb0-141" value="z" style="rounded=0;whiteSpace=wrap;html=1;fillColor=none;dashed=1;strokeColor=#808080;container=0;" parent="UnsoL70KzH1k03Q2WHb0-153" vertex="1">
          <mxGeometry x="208.75" y="96.93" width="160" height="438.07" as="geometry" />
        </mxCell>
        <mxCell id="UnsoL70KzH1k03Q2WHb0-146" value="&lt;span style=&quot;color: rgba(0, 0, 0, 0); font-family: monospace; font-size: 0px; text-align: start; text-wrap-mode: nowrap;&quot;&gt;%3CmxGraphModel%3E%3Croot%3E%3CmxCell%20id%3D%220%22%2F%3E%3CmxCell%20id%3D%221%22%20parent%3D%220%22%2F%3E%3CmxCell%20id%3D%222%22%20value%3D%22%22%20style%3D%22group%22%20vertex%3D%221%22%20connectable%3D%220%22%20parent%3D%221%22%3E%3CmxGeometry%20x%3D%22433.75%22%20y%3D%2282%22%20width%3D%22172.25%22%20height%3D%22495.5%22%20as%3D%22geometry%22%2F%3E%3C%2FmxCell%3E%3CmxCell%20id%3D%223%22%20value%3D%22%22%20style%3D%22group%22%20vertex%3D%221%22%20connectable%3D%220%22%20parent%3D%222%22%3E%3CmxGeometry%20width%3D%22172.25%22%20height%3D%22495.5%22%20as%3D%22geometry%22%2F%3E%3C%2FmxCell%3E%3CmxCell%20id%3D%224%22%20value%3D%22%22%20style%3D%22rounded%3D0%3BwhiteSpace%3Dwrap%3Bhtml%3D1%3BfillColor%3Dnone%3Bdashed%3D1%3BstrokeColor%3D%23808080%3Bcontainer%3D0%3B%22%20vertex%3D%221%22%20parent%3D%223%22%3E%3CmxGeometry%20x%3D%2212.25%22%20y%3D%2238%22%20width%3D%22160%22%20height%3D%22457.5%22%20as%3D%22geometry%22%2F%3E%3C%2FmxCell%3E%3CmxCell%20id%3D%225%22%20value%3D%22Silver%20Layer%22%20style%3D%22rounded%3D0%3BwhiteSpace%3Dwrap%3Bhtml%3D1%3BstrokeColor%3D%23666666%3BfillColor%3D%23f5f5f5%3BfontColor%3D%23333333%3B%22%20vertex%3D%221%22%20parent%3D%223%22%3E%3CmxGeometry%20x%3D%2212.25%22%20width%3D%22160%22%20height%3D%2230%22%20as%3D%22geometry%22%2F%3E%3C%2FmxCell%3E%3CmxCell%20id%3D%226%22%20value%3D%22%22%20style%3D%22endArrow%3Dnone%3Bhtml%3D1%3Brounded%3D0%3B%22%20edge%3D%221%22%20parent%3D%223%22%3E%3CmxGeometry%20relative%3D%221%22%20as%3D%22geometry%22%3E%3CmxPoint%20x%3D%2221.25%22%20y%3D%22178%22%20as%3D%22sourcePoint%22%2F%3E%3CmxPoint%20x%3D%22166.25%22%20y%3D%22178%22%20as%3D%22targetPoint%22%2F%3E%3C%2FmxGeometry%3E%3C%2FmxCell%3E%3CmxCell%20id%3D%227%22%20value%3D%22%26lt%3Bb%26gt%3BObject%20Type%26lt%3B%2Fb%26gt%3B%3A%20Table%22%20style%3D%22text%3Bhtml%3D1%3Balign%3Dcenter%3BverticalAlign%3Dmiddle%3BwhiteSpace%3Dwrap%3Brounded%3D0%3B%22%20vertex%3D%221%22%20parent%3D%223%22%3E%3CmxGeometry%20x%3D%221.25%22%20y%3D%22186.5%22%20width%3D%22155%22%20height%3D%2230%22%20as%3D%22geometry%22%2F%3E%3C%2FmxCell%3E%3CmxCell%20id%3D%228%22%20value%3D%22%26lt%3Bul%26gt%3B%26lt%3Bli%26gt%3BBatch%20Processing%26lt%3B%2Fli%26gt%3B%26lt%3Bli%26gt%3BFull%20Load%26lt%3B%2Fli%26gt%3B%26lt%3Bli%26gt%3BTruncate%20%26amp%3Bamp%3B%20Insert%26lt%3B%2Fli%26gt%3B%26lt%3B%2Ful%26gt%3B%22%20style%3D%22text%3Bhtml%3D1%3Balign%3Dleft%3BverticalAlign%3Dmiddle%3BwhiteSpace%3Dwrap%3Brounded%3D0%3B%22%20vertex%3D%221%22%20parent%3D%223%22%3E%3CmxGeometry%20x%3D%2212.25%22%20y%3D%22246.5%22%20width%3D%22140%22%20height%3D%2265.25%22%20as%3D%22geometry%22%2F%3E%3C%2FmxCell%3E%3CmxCell%20id%3D%229%22%20value%3D%22Transactions%22%20style%3D%22text%3Bhtml%3D1%3Balign%3Dcenter%3BverticalAlign%3Dmiddle%3BwhiteSpace%3Dwrap%3Brounded%3D0%3BfontStyle%3D1%22%20vertex%3D%221%22%20parent%3D%223%22%3E%3CmxGeometry%20x%3D%2222.25%22%20y%3D%22308%22%20width%3D%2285%22%20height%3D%2230%22%20as%3D%22geometry%22%2F%3E%3C%2FmxCell%3E%3CmxCell%20id%3D%2210%22%20value%3D%22%26lt%3Bb%26gt%3BData%20Model%3A%20%26lt%3B%2Fb%26gt%3BNone%26amp%3Bnbsp%3B%26lt%3Bdiv%26gt%3B(As-it-is)%26lt%3B%2Fdiv%26gt%3B%22%20style%3D%22text%3Bhtml%3D1%3Balign%3Dcenter%3BverticalAlign%3Dmiddle%3BwhiteSpace%3Dwrap%3Brounded%3D0%3B%22%20vertex%3D%221%22%20parent%3D%223%22%3E%3CmxGeometry%20y%3D%22408%22%20width%3D%22157.5%22%20height%3D%2250%22%20as%3D%22geometry%22%2F%3E%3C%2FmxCell%3E%3CmxCell%20id%3D%2211%22%20value%3D%22%26lt%3Bul%26gt%3B%26lt%3Bli%26gt%3BData%20Cleaning%26lt%3B%2Fli%26gt%3B%26lt%3Bli%26gt%3BData%20Standardization%26lt%3B%2Fli%26gt%3B%26lt%3Bli%26gt%3BData%20Normalization%26lt%3B%2Fli%26gt%3B%26lt%3Bli%26gt%3BDerived%20Columns%26lt%3B%2Fli%26gt%3B%26lt%3Bli%26gt%3BData%20Enrichment%26lt%3B%2Fli%26gt%3B%26lt%3B%2Ful%26gt%3B%22%20style%3D%22text%3Bhtml%3D1%3Balign%3Dleft%3BverticalAlign%3Dmiddle%3BwhiteSpace%3Dwrap%3Brounded%3D0%3B%22%20vertex%3D%221%22%20parent%3D%223%22%3E%3CmxGeometry%20x%3D%224.75%22%20y%3D%22338%22%20width%3D%22162.5%22%20height%3D%2265.25%22%20as%3D%22geometry%22%2F%3E%3C%2FmxCell%3E%3CmxCell%20id%3D%2212%22%20value%3D%22%22%20style%3D%22group%22%20vertex%3D%221%22%20connectable%3D%220%22%20parent%3D%222%22%3E%3CmxGeometry%20x%3D%2226.25%22%20y%3D%2263%22%20width%3D%2296%22%20height%3D%22195.5%22%20as%3D%22geometry%22%2F%3E%3C%2FmxCell%3E%3CmxCell%20id%3D%2213%22%20value%3D%22%22%20style%3D%22html%3D1%3BverticalLabelPosition%3Dbottom%3Balign%3Dcenter%3BlabelBackgroundColor%3D%23ffffff%3BverticalAlign%3Dtop%3BstrokeWidth%3D2%3BstrokeColor%3D%23666666%3Bshadow%3D0%3Bdashed%3D0%3Bshape%3Dmxgraph.ios7.icons.data%3BfillColor%3D%23f5f5f5%3BfontColor%3D%23333333%3B%22%20vertex%3D%221%22%20parent%3D%2212%22%3E%3CmxGeometry%20x%3D%2240%22%20width%3D%2252%22%20height%3D%2255%22%20as%3D%22geometry%22%2F%3E%3C%2FmxCell%3E%3CmxCell%20id%3D%2214%22%20value%3D%22Cleaned%2CStandardized%20Data%22%20style%3D%22text%3Bhtml%3D1%3Balign%3Dcenter%3BverticalAlign%3Dmiddle%3BwhiteSpace%3Dwrap%3Brounded%3D0%3B%22%20vertex%3D%221%22%20parent%3D%2212%22%3E%3CmxGeometry%20x%3D%2236%22%20y%3D%2265%22%20width%3D%2260%22%20height%3D%2230%22%20as%3D%22geometry%22%2F%3E%3C%2FmxCell%3E%3CmxCell%20id%3D%2215%22%20value%3D%22%26lt%3Bb%26gt%3BLoad%26lt%3B%2Fb%26gt%3B%22%20style%3D%22text%3Bhtml%3D1%3Balign%3Dcenter%3BverticalAlign%3Dmiddle%3BwhiteSpace%3Dwrap%3Brounded%3D0%3B%22%20vertex%3D%221%22%20parent%3D%2212%22%3E%3CmxGeometry%20y%3D%22165.5%22%20width%3D%2231%22%20height%3D%2230%22%20as%3D%22geometry%22%2F%3E%3C%2FmxCell%3E%3C%2Froot%3E%3C%2FmxGraphModel%3E&lt;/span&gt;&lt;span style=&quot;color: rgba(0, 0, 0, 0); font-family: monospace; font-size: 0px; text-align: start; text-wrap-mode: nowrap;&quot;&gt;%3CmxGraphModel%3E%3Croot%3E%3CmxCell%20id%3D%220%22%2F%3E%3CmxCell%20id%3D%221%22%20parent%3D%220%22%2F%3E%3CmxCell%20id%3D%222%22%20value%3D%22%22%20style%3D%22group%22%20vertex%3D%221%22%20connectable%3D%220%22%20parent%3D%221%22%3E%3CmxGeometry%20x%3D%22433.75%22%20y%3D%2282%22%20width%3D%22172.25%22%20height%3D%22495.5%22%20as%3D%22geometry%22%2F%3E%3C%2FmxCell%3E%3CmxCell%20id%3D%223%22%20value%3D%22%22%20style%3D%22group%22%20vertex%3D%221%22%20connectable%3D%220%22%20parent%3D%222%22%3E%3CmxGeometry%20width%3D%22172.25%22%20height%3D%22495.5%22%20as%3D%22geometry%22%2F%3E%3C%2FmxCell%3E%3CmxCell%20id%3D%224%22%20value%3D%22%22%20style%3D%22rounded%3D0%3BwhiteSpace%3Dwrap%3Bhtml%3D1%3BfillColor%3Dnone%3Bdashed%3D1%3BstrokeColor%3D%23808080%3Bcontainer%3D0%3B%22%20vertex%3D%221%22%20parent%3D%223%22%3E%3CmxGeometry%20x%3D%2212.25%22%20y%3D%2238%22%20width%3D%22160%22%20height%3D%22457.5%22%20as%3D%22geometry%22%2F%3E%3C%2FmxCell%3E%3CmxCell%20id%3D%225%22%20value%3D%22Silver%20Layer%22%20style%3D%22rounded%3D0%3BwhiteSpace%3Dwrap%3Bhtml%3D1%3BstrokeColor%3D%23666666%3BfillColor%3D%23f5f5f5%3BfontColor%3D%23333333%3B%22%20vertex%3D%221%22%20parent%3D%223%22%3E%3CmxGeometry%20x%3D%2212.25%22%20width%3D%22160%22%20height%3D%2230%22%20as%3D%22geometry%22%2F%3E%3C%2FmxCell%3E%3CmxCell%20id%3D%226%22%20value%3D%22%22%20style%3D%22endArrow%3Dnone%3Bhtml%3D1%3Brounded%3D0%3B%22%20edge%3D%221%22%20parent%3D%223%22%3E%3CmxGeometry%20relative%3D%221%22%20as%3D%22geometry%22%3E%3CmxPoint%20x%3D%2221.25%22%20y%3D%22178%22%20as%3D%22sourcePoint%22%2F%3E%3CmxPoint%20x%3D%22166.25%22%20y%3D%22178%22%20as%3D%22targetPoint%22%2F%3E%3C%2FmxGeometry%3E%3C%2FmxCell%3E%3CmxCell%20id%3D%227%22%20value%3D%22%26lt%3Bb%26gt%3BObject%20Type%26lt%3B%2Fb%26gt%3B%3A%20Table%22%20style%3D%22text%3Bhtml%3D1%3Balign%3Dcenter%3BverticalAlign%3Dmiddle%3BwhiteSpace%3Dwrap%3Brounded%3D0%3B%22%20vertex%3D%221%22%20parent%3D%223%22%3E%3CmxGeometry%20x%3D%221.25%22%20y%3D%22186.5%22%20width%3D%22155%22%20height%3D%2230%22%20as%3D%22geometry%22%2F%3E%3C%2FmxCell%3E%3CmxCell%20id%3D%228%22%20value%3D%22%26lt%3Bul%26gt%3B%26lt%3Bli%26gt%3BBatch%20Processing%26lt%3B%2Fli%26gt%3B%26lt%3Bli%26gt%3BFull%20Load%26lt%3B%2Fli%26gt%3B%26lt%3Bli%26gt%3BTruncate%20%26amp%3Bamp%3B%20Insert%26lt%3B%2Fli%26gt%3B%26lt%3B%2Ful%26gt%3B%22%20style%3D%22text%3Bhtml%3D1%3Balign%3Dleft%3BverticalAlign%3Dmiddle%3BwhiteSpace%3Dwrap%3Brounded%3D0%3B%22%20vertex%3D%221%22%20parent%3D%223%22%3E%3CmxGeometry%20x%3D%2212.25%22%20y%3D%22246.5%22%20width%3D%22140%22%20height%3D%2265.25%22%20as%3D%22geometry%22%2F%3E%3C%2FmxCell%3E%3CmxCell%20id%3D%229%22%20value%3D%22Transactions%22%20style%3D%22text%3Bhtml%3D1%3Balign%3Dcenter%3BverticalAlign%3Dmiddle%3BwhiteSpace%3Dwrap%3Brounded%3D0%3BfontStyle%3D1%22%20vertex%3D%221%22%20parent%3D%223%22%3E%3CmxGeometry%20x%3D%2222.25%22%20y%3D%22308%22%20width%3D%2285%22%20height%3D%2230%22%20as%3D%22geometry%22%2F%3E%3C%2FmxCell%3E%3CmxCell%20id%3D%2210%22%20value%3D%22%26lt%3Bb%26gt%3BData%20Model%3A%20%26lt%3B%2Fb%26gt%3BNone%26amp%3Bnbsp%3B%26lt%3Bdiv%26gt%3B(As-it-is)%26lt%3B%2Fdiv%26gt%3B%22%20style%3D%22text%3Bhtml%3D1%3Balign%3Dcenter%3BverticalAlign%3Dmiddle%3BwhiteSpace%3Dwrap%3Brounded%3D0%3B%22%20vertex%3D%221%22%20parent%3D%223%22%3E%3CmxGeometry%20y%3D%22408%22%20width%3D%22157.5%22%20height%3D%2250%22%20as%3D%22geometry%22%2F%3E%3C%2FmxCell%3E%3CmxCell%20id%3D%2211%22%20value%3D%22%26lt%3Bul%26gt%3B%26lt%3Bli%26gt%3BData%20Cleaning%26lt%3B%2Fli%26gt%3B%26lt%3Bli%26gt%3BData%20Standardization%26lt%3B%2Fli%26gt%3B%26lt%3Bli%26gt%3BData%20Normalization%26lt%3B%2Fli%26gt%3B%26lt%3Bli%26gt%3BDerived%20Columns%26lt%3B%2Fli%26gt%3B%26lt%3Bli%26gt%3BData%20Enrichment%26lt%3B%2Fli%26gt%3B%26lt%3B%2Ful%26gt%3B%22%20style%3D%22text%3Bhtml%3D1%3Balign%3Dleft%3BverticalAlign%3Dmiddle%3BwhiteSpace%3Dwrap%3Brounded%3D0%3B%22%20vertex%3D%221%22%20parent%3D%223%22%3E%3CmxGeometry%20x%3D%224.75%22%20y%3D%22338%22%20width%3D%22162.5%22%20height%3D%2265.25%22%20as%3D%22geometry%22%2F%3E%3C%2FmxCell%3E%3CmxCell%20id%3D%2212%22%20value%3D%22%22%20style%3D%22group%22%20vertex%3D%221%22%20connectable%3D%220%22%20parent%3D%222%22%3E%3CmxGeometry%20x%3D%2226.25%22%20y%3D%2263%22%20width%3D%2296%22%20height%3D%22195.5%22%20as%3D%22geometry%22%2F%3E%3C%2FmxCell%3E%3CmxCell%20id%3D%2213%22%20value%3D%22%22%20style%3D%22html%3D1%3BverticalLabelPosition%3Dbottom%3Balign%3Dcenter%3BlabelBackgroundColor%3D%23ffffff%3BverticalAlign%3Dtop%3BstrokeWidth%3D2%3BstrokeColor%3D%23666666%3Bshadow%3D0%3Bdashed%3D0%3Bshape%3Dmxgraph.ios7.icons.data%3BfillColor%3D%23f5f5f5%3BfontColor%3D%23333333%3B%22%20vertex%3D%221%22%20parent%3D%2212%22%3E%3CmxGeometry%20x%3D%2240%22%20width%3D%2252%22%20height%3D%2255%22%20as%3D%22geometry%22%2F%3E%3C%2FmxCell%3E%3CmxCell%20id%3D%2214%22%20value%3D%22Cleaned%2CStandardized%20Data%22%20style%3D%22text%3Bhtml%3D1%3Balign%3Dcenter%3BverticalAlign%3Dmiddle%3BwhiteSpace%3Dwrap%3Brounded%3D0%3B%22%20vertex%3D%221%22%20parent%3D%2212%22%3E%3CmxGeometry%20x%3D%2236%22%20y%3D%2265%22%20width%3D%2260%22%20height%3D%2230%22%20as%3D%22geometry%22%2F%3E%3C%2FmxCell%3E%3CmxCell%20id%3D%2215%22%20value%3D%22%26lt%3Bb%26gt%3BLoad%26lt%3B%2Fb%26gt%3B%22%20style%3D%22text%3Bhtml%3D1%3Balign%3Dcenter%3BverticalAlign%3Dmiddle%3BwhiteSpace%3Dwrap%3Brounded%3D0%3B%22%20vertex%3D%221%22%20parent%3D%2212%22%3E%3CmxGeometry%20y%3D%22165.5%22%20width%3D%2231%22%20height%3D%2230%22%20as%3D%22geometry%22%2F%3E%3C%2FmxCell%3E%3C%2Froot%3E%3C%2FmxGraphModel%3E&lt;/span&gt;" style="shape=singleArrow;whiteSpace=wrap;html=1;fillColor=#dae8fc;strokeColor=#6c8ebf;container=0;" parent="UnsoL70KzH1k03Q2WHb0-153" vertex="1">
          <mxGeometry x="767.5" y="204" width="60" height="27" as="geometry" />
        </mxCell>
      </root>
    </mxGraphModel>
  </diagram>
</mxfile>
